<?xml version="1.0" encoding="UTF-8"?><svg id="Layer_1" xmlns="http://www.w3.org/2000/svg" viewBox="0 0 218.7 56.7"><defs><style>.cls-1,.cls-2{fill:#555;}.cls-2,.cls-3,.cls-4,.cls-5,.cls-6,.cls-7,.cls-8,.cls-9,.cls-10,.cls-11,.cls-12,.cls-13{fill-rule:evenodd;}.cls-3{fill:#fff;}.cls-4{fill:#f39200;}.cls-5{fill:#ef7d00;}.cls-6{fill:#0085ba;}.cls-7{fill:#bee2e9;}.cls-8{fill:#d60b52;}.cls-9{fill:#3aaa35;}.cls-10{fill:#fbba00;}.cls-11{fill:#64b8e1;}.cls-12{fill:#a61f5e;}.cls-13{fill:#bccf00;}</style></defs><path class="cls-2" d="M147.4,15.3v10.7h-8.8V15.3h-5.1v26h5.1v-10.7h8.8v10.7h5.1V15.3h-5.1Zm-27.4,3.9c2.4,0,4,1.5,4.4,4.1h5.2c-.7-5.7-4.6-8.6-9.6-8.6-2.8,0-5.1,.9-7,2.8-1.1,1.1-1.8,2.4-2.1,3.9-.3,1.5-.4,4-.4,6.9s.1,5.4,.4,6.9c.3,1.5,1,2.8,2.1,3.9,1.9,1.9,4.2,2.9,7,2.9,5,0,8.9-2.9,9.6-8.6h-5.1c-.4,2.6-1.9,4.1-4.4,4.1-1.4,0-2.5-.4-3.2-1.4-1.1-1.1-1.3-2.7-1.3-7.8s.2-6.6,1.3-7.8c.7-.9,1.8-1.3,3.1-1.3Zm-30.1,22.1h17.1v-4.5h-12v-6.2h10.3v-4.5h-10.3v-6.2h12v-4.5h-17.1v25.9Zm-22.2-21.5h6.8v21.5h5.1V19.8h6.8v-4.5h-18.7v4.5Zm-8.1,12.8c0,3-1.8,4.8-4.5,4.8s-4.5-1.8-4.5-4.8V15.3h-5.1v17.5c0,5.5,4.2,9.1,9.6,9.1s9.6-3.6,9.6-9.1V15.3h-5v17.3h-.1ZM31.4,15.3h-5.1v26h16.9v-4.5h-11.8V15.3ZM8.3,32.4l3.3-9.5,3.2,9.5h-6.5Zm1.2-17.1L0,41.3H5.3l1.6-4.6h9.2l1.5,4.6h5.3L13.4,15.3h-3.9Z"/><path class="cls-1" d="M61.9,52.2l.7,2.1h.9l-2.3-6.8h-1.1l-2.3,6.8h.9l.7-2.1h2.5Zm-2.2-.7l.7-2c.1-.2,.1-.4,.2-.6,.1-.2,.1-.4,.2-.6,0,.2,.1,.4,.2,.6s.1,.4,.2,.6l.7,2h-2.2Zm4.9,2.8h3.8v-.7h-2.9v-6.1h-.9v6.8Zm4.4-6.8v4c0,.5,.1,1,.2,1.3,.1,.4,.3,.7,.5,.9,.2,.2,.5,.4,.8,.5,.3,.1,.6,.2,1,.2s.7-.1,1-.2c.3-.1,.6-.3,.8-.5,.2-.2,.4-.5,.5-.9,.1-.4,.2-.8,.2-1.3v-4h-.9v4c0,.5-.1,.9-.2,1.2s-.3,.6-.6,.7c-.2,.2-.5,.2-.9,.2-.3,0-.6-.1-.8-.2-.2-.2-.4-.4-.6-.7-.1-.3-.2-.7-.2-1.2v-4h-.8Zm7.8,6.8h.9v-6.1h2.1v-.7h-5v.7h2.1v6.1h-.1Zm7.3-3.9h-2.6v-2.2h2.8v-.7h-3.7v6.8h3.8v-.7h-2.9v-2.5h2.6v-.7Zm6,3c-.1,.1-.3,.1-.4,.1-.2,0-.3,.1-.5,.1h-.5c-.4,0-.8-.1-1.1-.2-.3-.1-.6-.3-.8-.6-.2-.2-.4-.5-.5-.9-.1-.3-.2-.7-.2-1.1s.1-.8,.2-1.2c.1-.3,.3-.6,.5-.9,.2-.2,.5-.4,.8-.5,.3-.1,.7-.2,1.1-.2,.3,0,.5,0,.8,.1,.2,.1,.4,.1,.6,.2l.2-.7c-.1,0-.2-.1-.3-.1s-.3-.1-.5-.1-.5-.1-.7-.1c-.5,0-1,.1-1.4,.3-.4,.2-.8,.4-1.1,.7-.3,.3-.6,.7-.7,1.1-.2,.4-.3,.9-.3,1.5s.1,1.1,.3,1.5c.2,.4,.4,.8,.7,1.1,.3,.3,.7,.5,1.1,.7,.4,.1,.9,.2,1.3,.2,.3,0,.5,0,.8-.1,.2,0,.4-.1,.6-.1,.2-.1,.3-.1,.4-.2l-.4-.6Zm1.3-5.9v6.8h.9v-3.2h3.3v3.2h.9v-6.8h-.9v2.8h-3.3v-2.8h-.9Zm6.1,3.8v.7h2.5v-.7h-2.5Zm8.9-.6h-2.2v.7h1.4v2c-.1,.1-.2,.1-.4,.1s-.4,.1-.7,.1c-.4,0-.8-.1-1.1-.2-.3-.1-.6-.3-.8-.5-.2-.2-.4-.5-.5-.9-.1-.3-.2-.7-.2-1.2,0-.4,.1-.8,.2-1.1s.3-.6,.6-.9c.2-.2,.5-.4,.9-.5,.3-.1,.7-.2,1.1-.2h.6c.2,0,.3,.1,.5,.1,.1,0,.3,.1,.4,.1l.2-.7c-.1,0-.2-.1-.4-.1s-.4-.1-.6-.1h-.7c-.6,0-1.1,.1-1.5,.3-.5,.2-.8,.4-1.2,.7-.3,.3-.6,.7-.7,1.1-.2,.4-.3,.9-.3,1.4,0,.4,0,.7,.1,1s.2,.6,.3,.9,.3,.5,.5,.7c.3,.3,.7,.5,1.1,.7,.4,.1,.9,.2,1.4,.2,.3,0,.6,0,.9-.1,.3,0,.5-.1,.7-.1,.2-.1,.4-.1,.5-.2v-3.3h-.1Zm1.4,3.6h.9v-3h.8c.3,0,.5,.1,.7,.1,.2,.1,.3,.2,.4,.4s.2,.4,.3,.8c.1,.4,.2,.8,.3,1.1,.1,.3,.1,.5,.2,.6h.9c-.1-.1-.1-.4-.2-.7-.1-.3-.2-.7-.3-1.2-.1-.4-.2-.6-.4-.9-.2-.2-.4-.4-.6-.5,.2-.1,.5-.2,.7-.4,.2-.2,.3-.4,.5-.6,.1-.2,.2-.5,.2-.8s0-.5-.1-.7-.2-.4-.4-.6c-.1-.1-.3-.2-.5-.3-.2-.1-.4-.1-.6-.2-.2,0-.5-.1-.8-.1h-1.2c-.2,0-.4,0-.5,.1v6.9h-.3Zm.8-6.1c.1,0,.2,0,.3-.1h.5c.3,0,.6,0,.8,.1,.2,.1,.4,.2,.5,.4,.1,.2,.2,.4,.2,.7s-.1,.5-.2,.7c-.1,.2-.3,.3-.5,.5-.2,.1-.5,.2-.8,.2h-.9v-2.5h.1Zm7.4-.8c-.5,0-.9,.1-1.3,.3-.4,.2-.7,.4-1,.7-.3,.3-.5,.7-.7,1.1-.2,.4-.2,.9-.2,1.5,0,.5,.1,1,.2,1.4,.1,.4,.4,.8,.6,1.1,.3,.3,.6,.5,1,.7s.8,.2,1.2,.3c.3,0,.7,0,1-.1,.3-.1,.6-.2,.9-.4,.3-.2,.5-.4,.7-.7,.2-.3,.3-.6,.5-1,.1-.4,.2-.8,.2-1.3s-.1-1-.2-1.4c-.1-.4-.3-.8-.6-1.1-.3-.3-.6-.5-1-.7-.4-.3-.9-.4-1.3-.4Zm-.1,.7c.3,0,.6,.1,.8,.2s.4,.2,.6,.4c.2,.2,.3,.4,.4,.6,.1,.2,.2,.5,.3,.8,.1,.3,.1,.5,.1,.8,0,.4,0,.8-.1,1.1s-.2,.6-.4,.9c-.2,.3-.4,.5-.7,.6-.3,.1-.6,.2-.9,.2s-.5,0-.8-.1c-.2-.1-.4-.2-.6-.4-.2-.2-.3-.4-.4-.6-.1-.2-.2-.5-.3-.8s-.1-.6-.1-.8c0-.3,0-.6,.1-.9,.1-.3,.1-.5,.3-.8,.1-.2,.3-.4,.4-.6,.2-.2,.4-.3,.6-.4,.2-.1,.4-.2,.7-.2Zm4.3-.6v4c0,.5,.1,1,.2,1.3,.1,.4,.3,.7,.5,.9,.2,.2,.5,.4,.8,.5,.3,.1,.6,.2,1,.2s.7-.1,1-.2c.3-.1,.6-.3,.8-.5s.4-.5,.5-.9c.1-.4,.2-.8,.2-1.3v-4h-.9v4c0,.5-.1,.9-.2,1.2s-.3,.6-.6,.7c-.2,.2-.5,.2-.9,.2-.3,0-.6-.1-.8-.2-.2-.2-.4-.4-.6-.7-.1-.3-.2-.7-.2-1.2v-4h-.8Zm6.5,6.8h.9v-2.7h.7c.3,0,.6,0,.8-.1,.3-.1,.5-.1,.7-.2,.2-.1,.4-.2,.6-.4,.2-.2,.3-.4,.4-.6,.1-.2,.1-.5,.1-.8s-.1-.6-.2-.8c-.1-.2-.2-.4-.4-.6-.2-.2-.5-.3-.8-.4-.3-.1-.7-.1-1.1-.1h-.9c-.3,0-.5,.1-.7,.1v6.6h-.1Zm.9-6.1h.8c.3,0,.6,0,.8,.1,.2,.1,.4,.2,.6,.4,.1,.2,.2,.4,.2,.7s-.1,.6-.2,.8c-.1,.2-.3,.4-.6,.5-.3,.1-.6,.2-.9,.2h-.4c-.1,0-.2,0-.3-.1v-2.6Zm3.8,6.2c.1,0,.2,0,.3-.1,.1-.1,.2-.1,.2-.2s.1-.2,.1-.3,0-.2-.1-.3c-.1-.1-.1-.2-.2-.2-.1-.1-.2-.1-.3-.1s-.2,0-.3,.1c-.1,.1-.2,.1-.2,.2-.1,.1-.1,.2-.1,.3s0,.2,.1,.3c0,.1,.1,.2,.2,.2,.1,.1,.2,.1,.3,.1Zm6.7-1c-.1,.1-.3,.1-.4,.1-.2,0-.3,.1-.5,.1h-.5c-.4,0-.8-.1-1.1-.2-.3-.1-.6-.3-.8-.6-.2-.2-.4-.5-.5-.9-.1-.3-.2-.7-.2-1.1s.1-.8,.2-1.2c.1-.3,.3-.6,.5-.9,.2-.2,.5-.4,.8-.5,.3-.1,.7-.2,1.1-.2,.3,0,.5,0,.8,.1,.2,.1,.4,.1,.6,.2l.2-.7c-.1,0-.2-.1-.3-.1s-.3-.1-.5-.1-.5-.1-.7-.1c-.5,0-1,.1-1.4,.3-.4,.2-.8,.4-1.1,.7s-.6,.7-.7,1.1c-.2,.4-.3,.9-.3,1.5s.1,1.1,.3,1.5c.2,.4,.4,.8,.7,1.1s.7,.5,1.1,.7c.4,.1,.9,.2,1.3,.2,.3,0,.5,0,.8-.1,.2,0,.4-.1,.6-.1,.2-.1,.3-.1,.4-.2l-.4-.6Zm3.8-6c-.5,0-.9,.1-1.3,.3-.4,.2-.7,.4-1,.7-.3,.3-.5,.7-.7,1.1-.2,.4-.2,.9-.2,1.5,0,.5,.1,1,.2,1.4,.1,.4,.4,.8,.6,1.1,.3,.3,.6,.5,1,.7s.8,.2,1.2,.3c.3,0,.7,0,1-.1,.3-.1,.6-.2,.9-.4,.3-.2,.5-.4,.7-.7s.3-.6,.5-1c.1-.4,.2-.8,.2-1.3s-.1-1-.2-1.4c-.1-.4-.3-.8-.6-1.1s-.6-.5-1-.7c-.4-.3-.8-.4-1.3-.4Zm0,.7c.3,0,.6,.1,.8,.2,.2,.1,.4,.2,.6,.4s.3,.4,.4,.6c.1,.2,.2,.5,.3,.8,.1,.3,.1,.5,.1,.8,0,.4,0,.8-.1,1.1s-.2,.6-.4,.9c-.2,.3-.4,.5-.7,.6-.3,.1-.6,.2-.9,.2s-.5,0-.8-.1c-.2-.1-.4-.2-.6-.4-.2-.2-.3-.4-.4-.6-.1-.2-.2-.5-.3-.8-.1-.3-.1-.6-.1-.8,0-.3,0-.6,.1-.9,.1-.3,.1-.5,.3-.8,.1-.2,.3-.4,.4-.6,.2-.2,.4-.3,.6-.4,.1-.1,.4-.2,.7-.2Zm10.1,6.2h.9l-.4-6.8h-1.1l-1.2,3.3c-.2,.4-.3,.8-.4,1.2-.1,.4-.2,.7-.3,1.1-.1-.4-.2-.7-.3-1.1-.1-.4-.2-.8-.4-1.2l-1.2-3.3h-1.1l-.5,6.8h.8l.2-2.9c0-.3,0-.7,.1-1v-1.9c.1,.4,.2,.8,.3,1.3,.1,.4,.3,.9,.4,1.4l1.1,3.2h.7l1.2-3.3c.2-.5,.3-.9,.5-1.3,.1-.4,.3-.8,.4-1.2v2.9l.3,2.8Z"/><path class="cls-3" d="M218.7,56.7h-56.7V0h56.7V56.7Z"/><path class="cls-8" d="M193.8,30.6h-1.2v23.8h4.6c1-1.2,1.8-2.5,2.4-4,2.9-7.3,.4-15.4-5.8-19.8Zm6.8,23.8h15.8v-9.9c-6.9-.3-13.2,3.7-15.8,9.9Zm-2-23.8c2.7,7.2,10.1,11.7,17.8,10.6v-10.6h-17.8Z"/><path class="cls-12" d="M205,48.4c2.4,1.4,4.5,3.5,5.9,6h5.5v-9.9c-4.3-.2-8.3,1.3-11.4,3.9Zm-12.4-4.6v10.6h4.6c1-1.2,1.8-2.5,2.4-4,1.3-3.1,1.6-6.4,.9-9.5-2.4,1.7-5.1,2.7-7.9,2.9Zm17.8-13.2h-11.8c1.6,4.4,5.1,7.8,9.2,9.5-.1-3.4,.8-6.7,2.6-9.5Z"/><path class="cls-11" d="M181.9,42.5c3.1-3.2,5.3-7.3,6.2-11.9h-23.8v23.8h23.8c-1-4.5-3.2-8.6-6.2-11.9Z"/><path class="cls-7" d="M181.3,30.6h-17v4.3c4.2,0,8.2,1.1,11.6,3,2.1-2.1,4-4.6,5.4-7.3Zm-5.4,16.5c-3.5,1.9-7.4,3-11.6,3v4.3h17c-1.4-2.7-3.3-5.2-5.4-7.3Z"/><path class="cls-6" d="M164.3,35v5.1c2,.6,3.9,1.5,5.6,2.5,2.2-1.3,4.2-2.8,6-4.6-3.5-2-7.4-3-11.6-3Zm0,10v5.1c4.2,0,8.2-1.1,11.6-3-1.8-1.8-3.8-3.3-6-4.6-1.8,1-3.7,1.9-5.6,2.5Z"/><path class="cls-13" d="M192.6,26.1h23.8V15.8h-23.8v10.3Zm0-23.8V13.6h23.8V2.3h-23.8Z"/><path class="cls-9" d="M192.6,22.8h23.8v-4.9h-23.8v4.9Zm0-20.5V10.7h23.8V2.3h-23.8Z"/><path class="cls-10" d="M176.6,18.9c-1.6-1-2.9-2.3-3.9-3.8-.4-1.7-.2-3.5,.8-5.1,1.9-3.1,6-4.1,9.2-2.2,3.1,1.9,4.1,6,2.2,9.2-.3,.5-.7,.9-1.1,1.3-1.1,.7-2.3,1.2-3.6,1.3,3,.3,6-1,7.9-3.5V2.3h-23.8V26.1h23.8v-6.3c-3.7,1.5-7.9,1.3-11.5-.9Z"/><path class="cls-4" d="M171.6,13.1c-.7-2.8-.4-6,1.3-8.7,.5-.8,1.1-1.6,1.8-2.2h-2.7c-1.8,3.5-1.9,7.5-.4,10.9Zm12.9,13h3.6v-2.4c-1.1,.9-2.3,1.7-3.6,2.4ZM165.7,2.3h-1.4v2c.1-.1,.1-.2,.2-.3,.3-.6,.7-1.2,1.2-1.7Zm-1.4,17.7v6.1h6.6c-.4-.2-.9-.5-1.3-.7-2.3-1.4-4.1-3.3-5.3-5.4Z"/><path class="cls-5" d="M176.6,18.9c-5.7-3.5-7.6-10.8-4.6-16.6h-3.6c-3.9,6.3-1.9,14.5,4.3,18.4,4.9,3,11.1,2.5,15.4-.9-3.7,1.5-7.9,1.3-11.5-.9Zm9-15.9c-.5-.3-1-.5-1.4-.7h-6.6c-1.8,.7-3.3,1.9-4.4,3.6-.8,1.3-1.2,2.7-1.3,4.2,.2-.8,.5-1.6,.9-2.3,2.2-3.6,7-4.8,10.7-2.5,3.6,2.2,4.8,7,2.5,10.7-1.3,2.2-3.6,3.4-5.9,3.6,3,.3,6-1,7.9-3.5V5.2c-.6-.9-1.4-1.6-2.4-2.2Z"/></svg>