<?xml version="1.0" encoding="UTF-8"?><svg id="a" xmlns="http://www.w3.org/2000/svg" viewBox="0 0 90 90"><defs><style>.b{fill:#fff;fill-rule:evenodd;stroke-width:0px;}</style></defs><path class="b" d="M43.16,88.8v-24.17l-20.92-12.08v24.17l10.92,6.3s.04.02.06.03l9.94,5.74ZM41.32,31.96V11.38h-4.32c-.41,0-.79-.25-.95-.62s-.09-.82.2-1.12l7.63-8.11.05-.04h0c.41-.39,1.07-.37,1.46.04l7.59,8.06h0c.32.29.42.74.27,1.14-.16.4-.54.66-.97.66h-4.32v20.57c0,1.7-1.38,3.07-3.07,3.07h-.48c-1.7,0-3.07-1.38-3.07-3.07h0ZM10.18,19.27v4.32c0,.41-.25.78-.62.95s-.82.09-1.12-.2L.32,16.72s-.03-.03-.04-.05c-.39-.41-.37-1.07.04-1.46l8.06-7.59c.29-.32.74-.42,1.14-.27.4.15.66.54.66.96v4.32h5.51c6.43.01,11.63,5.21,11.64,11.64v8.39h0c0,1.79-1.45,3.24-3.25,3.25h-.13c-1.79,0-3.25-1.46-3.25-3.25v-8.39c-.02-2.77-2.25-5-5.02-5.02h-5.52ZM79.82,12.65v-4.32c0-.43.26-.81.66-.96.4-.16.85-.05,1.14.27l8.06,7.59c.41.39.43,1.04.04,1.46-.02.02-.03.03-.04.05l-8.12,7.63c-.3.28-.74.36-1.12.2-.38-.16-.62-.54-.62-.95v-4.32h-5.52c-2.76.02-5,2.25-5.02,5.02v8.39h0c0,1.79-1.45,3.24-3.25,3.25h-.13c-1.79,0-3.24-1.46-3.25-3.25v-8.39c.02-6.43,5.22-11.63,11.64-11.64h5.51ZM32.36,45.51l.86-.5,2.22-1.28,20.93,12.09-3.18,1.83-20.84-12.14ZM53.72,59.73l-.02.02-8.46,4.88v24.17l20.93-12.08v-24.17s-12.44,7.18-12.44,7.18ZM51.13,58.84l-6.93,4-20.93-12.08,7.03-4.06,20.84,12.14h0ZM37.5,42.54l6.7-3.86,10.98,6.34.06.03,9.89,5.71-6.7,3.86-20.93-12.09Z"/></svg>