<?xml version="1.0" encoding="UTF-8"?><svg id="b" xmlns="http://www.w3.org/2000/svg" viewBox="0 0 95.1 95.1"><defs><style>.c{fill:#fff;stroke-width:0px;}</style></defs><path class="c" d="M69.25,0c-11.5,0-23.8,3.8-23.8,10.8v5.7c-4.6-2.9-12.2-4.5-19.5-4.5-11.5,0-23.8,3.8-23.8,10.8v36c0,6.6,10.8,10.3,21.7,10.8,0,.5-.1,1.1-.1,1.7,0,13.1,10.7,23.8,23.8,23.8s23.8-10.7,23.8-23.8c0-.6,0-1.1-.1-1.7,10.9-.4,21.7-4.2,21.7-10.8V10.8c.1-7-12.1-10.8-23.7-10.8ZM26.05,16.2c11.9,0,19.5,3.9,19.5,6.6s-7.6,6.6-19.5,6.6-19.5-3.9-19.5-6.6c-.1-2.7,7.5-6.6,19.5-6.6ZM6.45,29.1c4.6,2.9,12.2,4.5,19.5,4.5s15-1.5,19.5-4.5v5.7c0,2.7-7.6,6.6-19.5,6.6s-19.5-3.9-19.5-6.6c0,0,0-5.7,0-5.7ZM6.45,41.1c4.6,2.9,12.2,4.5,19.5,4.5s15-1.5,19.5-4.5v5.7c0,.2-.1.5-.2.7-4.9.5-9.4,2.4-13,5.5-1.9.3-4.1.4-6.4.4-11.9,0-19.5-3.9-19.5-6.6v-5.7h.1ZM6.45,58.8v-5.7c4.6,2.9,12.2,4.5,19.5,4.5.7,0,1.4,0,2.2-.1-1.6,2.3-2.9,5-3.6,7.8-11.1-.3-18.1-4-18.1-6.5ZM47.65,90.8c-10.8,0-19.6-8.8-19.6-19.6s8.8-19.6,19.6-19.6,19.6,8.8,19.6,19.6-8.8,19.6-19.6,19.6ZM88.85,58.8c0,2.6-7,6.2-18.1,6.5-.7-2.8-1.9-5.5-3.6-7.8.7,0,1.4.1,2.2.1,7.3,0,15-1.5,19.5-4.5v5.7ZM88.85,46.8c0,2.7-7.6,6.6-19.5,6.6-2.3,0-4.4-.1-6.4-.4-3.6-3-8.1-5-13-5.5-.1-.2-.2-.5-.2-.7v-5.7c4.6,2.9,12.2,4.5,19.5,4.5s15-1.5,19.5-4.5v5.7h.1ZM88.85,34.8c0,2.7-7.6,6.6-19.5,6.6s-19.5-3.9-19.5-6.6v-5.7c4.6,2.9,12.2,4.5,19.5,4.5s15-1.5,19.5-4.5v5.7ZM88.85,22.8c0,2.7-7.6,6.6-19.5,6.6s-19.5-3.9-19.5-6.6v-5.7c4.6,2.9,12.2,4.5,19.5,4.5s15-1.5,19.5-4.5v5.7ZM69.25,17.4c-11.9,0-19.5-3.9-19.5-6.6s7.6-6.6,19.5-6.6,19.5,3.9,19.5,6.6c.1,2.7-7.5,6.6-19.5,6.6Z"/><path class="c" d="M50.15,59.2h-7.1c-.4,0-.6.3-.6.6v10.4h-2.4c-.4,0-.6.3-.6.6v2.7c0,.4.3.6.6.6h2.4v2.6h-2.4c-.4,0-.6.3-.6.6v2.6c0,.4.3.6.6.6h2.4v3c0,.3.3.6.6.6h2.6c.4,0,.6-.3.6-.6v-3h5.6c.4,0,.6-.3.6-.6v-2.6c0-.3-.2-.6-.6-.6h-5.6v-2.6h4.1c4.2,0,7.6-3.5,7.4-7.7-.1-4-3.6-7.2-7.6-7.2ZM50.35,70.2h-4.1v-7.1h4.1c2,0,3.6,1.6,3.6,3.6s-1.6,3.5-3.6,3.5Z"/></svg>