<?xml version="1.0" encoding="UTF-8"?><svg id="a" xmlns="http://www.w3.org/2000/svg" viewBox="0 0 93.75 93.75"><defs><style>.b{fill:#fff;fill-rule:evenodd;stroke-width:0px;}</style></defs><path class="b" d="M21.87,3.12c0-1.73,1.4-3.12,3.12-3.12h43.75c1.73,0,3.12,1.4,3.12,3.12v18.75c0,1.73-1.4,3.12-3.12,3.12h-3.12v6.25c0,1.73-1.4,3.12-3.12,3.12h-12.5v6.25c0,1.73-1.4,3.12-3.12,3.12s-3.12-1.4-3.12-3.12v-6.25h-12.5c-1.73,0-3.12-1.4-3.12-3.12v-6.25h-3.12c-1.73,0-3.12-1.4-3.12-3.12V3.12ZM59.37,28.12v-6.25c0-1.73,1.4-3.12,3.12-3.12h3.12V6.25H28.12v12.5h3.12c1.73,0,3.12,1.4,3.12,3.12v6.25h25Z"/><path class="b" d="M20.31,65.62c-4.32,0-7.81,3.5-7.81,7.81s3.5,7.81,7.81,7.81,7.81-3.5,7.81-7.81-3.5-7.81-7.81-7.81ZM18.75,73.44c0-.86.7-1.56,1.56-1.56s1.56.7,1.56,1.56-.7,1.56-1.56,1.56-1.56-.7-1.56-1.56Z"/><path class="b" d="M39.06,73.44c0-4.32,3.5-7.81,7.81-7.81s7.81,3.5,7.81,7.81-3.5,7.81-7.81,7.81-7.81-3.5-7.81-7.81ZM46.87,71.87c-.86,0-1.56.7-1.56,1.56s.7,1.56,1.56,1.56,1.56-.7,1.56-1.56-.7-1.56-1.56-1.56Z"/><path class="b" d="M73.44,65.62c-4.32,0-7.81,3.5-7.81,7.81s3.5,7.81,7.81,7.81,7.81-3.5,7.81-7.81-3.5-7.81-7.81-7.81ZM71.87,73.44c0-.86.7-1.56,1.56-1.56s1.56.7,1.56,1.56-.7,1.56-1.56,1.56-1.56-.7-1.56-1.56Z"/><path class="b" d="M20.31,53.12c-11.22,0-20.31,9.09-20.31,20.31s9.09,20.31,20.31,20.31h53.13c11.22,0,20.31-9.09,20.31-20.31s-9.09-20.31-20.31-20.31H20.31ZM6.25,73.44c0-7.77,6.3-14.06,14.06-14.06h53.13c7.77,0,14.06,6.3,14.06,14.06s-6.3,14.06-14.06,14.06H20.31c-7.77,0-14.06-6.3-14.06-14.06Z"/></svg>