<?xml version="1.0" encoding="UTF-8"?><svg id="c" xmlns="http://www.w3.org/2000/svg" viewBox="0 0 27.44 27.44"><defs><style>.d{fill:#fff;stroke-width:0px;}</style></defs><path class="d" d="M3.94,22.02v-11.22h4.36c1.25,0,2.27.35,3.08,1.06.81.71,1.21,1.64,1.21,2.8s-.41,2.06-1.23,2.79c-.82.73-1.84,1.09-3.07,1.09h-1.46v3.49h-2.9ZM6.84,15.98h1.48c.4,0,.73-.12.97-.37.24-.24.36-.56.36-.96s-.12-.71-.36-.95c-.24-.24-.56-.36-.97-.36h-1.48v2.63Z"/><path class="d" d="M21.95,14.58c.76.84,1.15,1.91,1.15,3.2s-.38,2.35-1.14,3.19c-.76.83-1.73,1.25-2.91,1.25-1.09,0-1.89-.36-2.41-1.09v.88h-2.64v-12.75h2.9v4.83c.55-.52,1.27-.78,2.16-.78,1.17,0,2.13.42,2.9,1.27ZM19.66,19.09c.31-.32.46-.76.46-1.32s-.16-1-.48-1.32c-.32-.32-.71-.49-1.17-.49s-.85.17-1.16.49c-.31.33-.47.77-.47,1.33s.15.99.46,1.31c.31.32.7.48,1.17.48s.88-.16,1.19-.48Z"/><path class="d" d="M16.7,4.05h.7v.5h-1.73s0-.12,0-.12l.81-.89c.18-.2.27-.37.27-.5,0-.08-.02-.14-.07-.19s-.1-.07-.17-.07-.13.02-.17.07c-.04.05-.06.12-.06.2,0,.05,0,.1.01.15h-.59c-.02-.06-.02-.13-.02-.19,0-.2.08-.38.24-.54.16-.16.37-.24.61-.23.24,0,.43.07.59.21.16.14.24.32.24.54,0,.15-.04.29-.12.43s-.2.29-.38.48l-.16.17Z"/><path class="d" d="M17.75,3.39c0-.35.08-.63.25-.84.16-.21.39-.32.69-.32s.53.11.69.32c.16.21.25.49.25.84s-.08.64-.25.86c-.17.22-.39.33-.69.33s-.53-.11-.69-.33c-.16-.22-.25-.51-.25-.86ZM19.02,3.39c0-.21-.03-.37-.08-.47-.05-.1-.14-.15-.25-.15s-.2.05-.25.15c-.05.1-.08.26-.08.47,0,.43.11.65.33.65s.33-.22.33-.65Z"/><path class="d" d="M19.89,2.27h1.64v.16l-.96,2.12h-.64l.82-1.74h-.86v-.54Z"/><path class="d" d="M21.47,4.48c-.07-.07-.11-.17-.11-.28s.04-.2.11-.28c.07-.07.17-.11.28-.11s.2.04.27.11c.07.07.11.17.11.28s-.04.2-.11.28c-.07.07-.16.11-.27.11s-.21-.04-.28-.11Z"/><path class="d" d="M23.4,4.05h.7v.5h-1.73s0-.12,0-.12l.81-.89c.18-.2.27-.37.27-.5,0-.08-.02-.14-.07-.19s-.1-.07-.17-.07-.13.02-.17.07c-.04.05-.06.12-.06.2,0,.05,0,.1.01.15h-.59c-.02-.06-.02-.13-.02-.19,0-.2.08-.38.24-.54.16-.16.37-.24.61-.23.24,0,.43.07.59.21.16.14.24.32.24.54,0,.15-.04.29-.12.43s-.2.29-.38.48l-.16.17Z"/><path class="d" d="M24.44,3.39c0-.35.08-.63.25-.84.16-.21.39-.32.69-.32s.53.11.69.32c.16.21.25.49.25.84s-.08.64-.25.86c-.17.22-.39.33-.69.33s-.53-.11-.69-.33c-.16-.22-.25-.51-.25-.86ZM25.71,3.39c0-.21-.03-.37-.08-.47-.05-.1-.14-.15-.25-.15s-.2.05-.25.15c-.05.1-.08.26-.08.47,0,.43.11.65.33.65s.33-.22.33-.65Z"/><path class="d" d="M2.37,3.86c0,.26-.1.46-.31.61-.2.15-.47.22-.79.22s-.59-.07-.79-.22c-.2-.15-.31-.35-.31-.61,0-.31.16-.54.49-.69-.24-.17-.36-.38-.36-.65,0-.24.09-.43.27-.57.18-.14.42-.21.7-.21s.52.07.7.21c.18.14.27.33.27.57,0,.26-.12.48-.36.65.32.15.49.38.49.69ZM1.64,3.83c0-.15-.12-.26-.38-.35-.25.09-.37.21-.37.35,0,.08.03.15.1.2.06.05.16.07.28.07s.21-.02.28-.07c.06-.05.1-.12.1-.2ZM.96,2.56c0,.06.02.11.07.16.05.05.13.1.23.15.11-.05.19-.1.23-.15s.07-.1.07-.16c0-.07-.03-.12-.09-.17-.06-.04-.13-.06-.22-.06s-.16.02-.22.06c-.06.04-.09.1-.09.17Z"/><path class="d" d="M4,4.02h.87v.62h-2.15s0-.15,0-.15l1.01-1.12c.22-.25.34-.46.34-.63,0-.1-.03-.18-.08-.24s-.12-.09-.21-.09-.16.03-.21.09c-.05.06-.08.14-.08.25,0,.06,0,.12.02.19h-.74c-.02-.08-.03-.16-.03-.24,0-.25.09-.48.3-.68.2-.2.46-.3.76-.29.29,0,.54.09.74.27s.3.4.3.67c0,.19-.05.36-.14.53s-.25.37-.47.6l-.2.21Z"/></svg>