<?xml version="1.0" encoding="UTF-8"?><svg id="a" xmlns="http://www.w3.org/2000/svg" viewBox="0 0 87.5 87.5"><defs><style>.b{fill:#fff;stroke-width:0px;}</style></defs><path class="b" d="M78.12,81.25h-3.12V31.25C75,14.02,60.98,0,43.75,0S12.5,14.02,12.5,31.25v50h-3.12c-1.73,0-3.12,1.4-3.12,3.12s1.4,3.12,3.12,3.12h68.75c1.73,0,3.12-1.4,3.12-3.12s-1.4-3.12-3.12-3.12ZM68.75,37.5h-18.61l14.94-19.22c2.31,3.79,3.66,8.21,3.66,12.97v6.25ZM40.62,59.38h-21.88v-15.62h21.88v15.62ZM26.43,13.27c3.79-3.65,8.71-6.11,14.19-6.8v25.05l-14.19-18.25ZM46.88,6.47c5.48.69,10.41,3.15,14.19,6.8l-14.19,18.25V6.46h0ZM46.88,43.75h21.88v15.62h-21.88v-15.62ZM22.41,18.29l14.95,19.22h-18.61v-6.25c0-4.75,1.36-9.18,3.66-12.97h0ZM18.75,65.63h21.88v15.62h-21.88v-15.62ZM46.87,81.25v-15.62h21.88v15.62h-21.88Z"/></svg>