<?xml version="1.0" encoding="UTF-8"?><svg id="a" xmlns="http://www.w3.org/2000/svg" viewBox="0 0 79.82 79.82"><defs><style>.b{fill:#fff;stroke-width:0px;}</style></defs><path class="b" d="M25.77,58.26c0,1.62-1.32,2.94-2.94,2.94h-7.07c-1.62,0-2.94-1.32-2.94-2.94s1.32-2.94,2.94-2.94h7.07c1.62,0,2.94,1.32,2.94,2.94ZM16.39,47.2c0-1.62-1.32-2.94-2.94-2.94H2.94c-1.62,0-2.94,1.32-2.94,2.94s1.32,2.94,2.94,2.94h10.5c1.62,0,2.94-1.32,2.94-2.94ZM8.54,37.23h8.91c1.62,0,2.94-1.32,2.94-2.94s-1.32-2.94-2.94-2.94h-8.91c-1.62,0-2.94,1.32-2.94,2.94s1.32,2.94,2.94,2.94ZM15.91,24.5h6.46c1.62,0,2.94-1.32,2.94-2.94s-1.32-2.94-2.94-2.94h-6.46c-1.62,0-2.94,1.32-2.94,2.94s1.32,2.94,2.94,2.94ZM79.82,39.91c0,15.32-12.46,27.78-27.78,27.78s-27.78-12.46-27.78-27.78,12.47-27.78,27.78-27.78,27.78,12.47,27.78,27.79ZM73.94,39.91c0-12.08-9.82-21.9-21.9-21.9s-21.9,9.82-21.9,21.9,9.82,21.9,21.9,21.9,21.9-9.82,21.9-21.9ZM64.7,43.96l-9.73-5.73v-11.72c0-1.62-1.32-2.94-2.94-2.94s-2.94,1.32-2.94,2.94v13.4c0,1.04.55,2,1.45,2.53l11.17,6.58c.47.28.98.41,1.49.41,1.01,0,1.99-.52,2.54-1.45.82-1.4.36-3.2-1.04-4.03h0Z"/></svg>