<?xml version="1.0" encoding="UTF-8"?><svg id="Layer_1" xmlns="http://www.w3.org/2000/svg" viewBox="0 0 472.5 472.49"><path d="M26.25,367.5H105v96.25c0,3.41,1.99,6.52,5.09,7.94,3.11,1.43,6.75,.92,9.35-1.3l120.04-102.89h206.77c6.96,0,13.63-2.78,18.55-7.7,4.92-4.92,7.69-11.59,7.7-18.55V26.25c0-6.96-2.78-13.63-7.7-18.56-4.92-4.92-11.59-7.69-18.55-7.7H26.25C19.29,0,12.62,2.78,7.7,7.7,2.78,12.62,0,19.29,0,26.25V341.25c0,6.96,2.78,13.63,7.7,18.55,4.92,4.92,11.59,7.69,18.56,7.7h0ZM17.5,26.25c0-4.83,3.92-8.75,8.75-8.75H446.25c2.32,0,4.55,.92,6.19,2.56,1.64,1.64,2.56,3.87,2.56,6.19V341.25c0,2.32-.92,4.55-2.56,6.19s-3.87,2.56-6.19,2.56H236.25c-.43,.05-.86,.14-1.27,.25-.59,.06-1.16,.18-1.72,.35-.61,.25-1.18,.57-1.71,.95-.34,.16-.68,.35-1,.55l-108.06,92.62v-85.98c0-2.32-.92-4.55-2.56-6.19s-3.87-2.56-6.19-2.56H26.25c-4.83,0-8.75-3.92-8.75-8.75V26.25Z"/><path d="M173.25,150.5c2.32,0,4.55-.92,6.19-2.56s2.56-3.87,2.56-6.19c-.04-16.53,7.49-32.16,20.44-42.43,13.16-10.43,30.38-14.24,46.71-10.35,15.24,3.72,28.13,13.85,35.34,27.78,7.21,13.93,8.05,30.3,2.29,44.9-5.76,14.59-17.55,25.98-32.33,31.23-7.74,2.5-14.51,7.37-19.34,13.92-4.84,6.55-7.5,14.44-7.62,22.58v6.88c0,4.83,3.92,8.75,8.75,8.75s8.75-3.92,8.75-8.75v-6.88c.15-4.52,1.71-8.87,4.46-12.46,2.75-3.59,6.54-6.22,10.86-7.55,16.64-6.03,30.48-17.95,38.92-33.51,8.43-15.55,10.87-33.66,6.85-50.9-2.99-12.92-9.54-24.75-18.93-34.12-9.38-9.38-21.2-15.93-34.13-18.92-21.38-5.11-43.93-.15-61.19,13.46-17.26,13.62-27.34,34.39-27.34,56.37,0,2.32,.92,4.55,2.56,6.19s3.87,2.56,6.19,2.56h0Z"/><path d="M243.55,271.17c-4.08-3.92-10.52-3.92-14.6,0-2.95,2.95-3.84,7.39-2.24,11.25,1.6,3.86,5.36,6.38,9.54,6.38s7.94-2.52,9.54-6.38,.71-8.3-2.24-11.25h0Z"/></svg>