<?xml version="1.0" encoding="UTF-8"?><svg id="Outline" xmlns="http://www.w3.org/2000/svg" viewBox="0 0 512 512"><path d="M256,0C114.62,0,0,114.62,0,256s114.62,256,256,256,256-114.62,256-256C511.85,114.68,397.32,.15,256,0Zm184.47,149.33h-68.71c-15.38-35.65-35.64-68.99-60.18-99.07,54.33,14.78,100.64,50.38,128.9,99.07Zm-88.47,106.67c-.18,21.72-3.6,43.29-10.15,64H170.15c-6.56-20.71-9.98-42.28-10.15-64,.18-21.72,3.6-43.29,10.15-64h171.69c6.56,20.71,9.98,42.28,10.15,64Zm-164.74,106.67h137.47c-18.11,35.75-41.26,68.71-68.74,97.88-27.49-29.16-50.64-62.12-68.74-97.88Zm0-213.33c18.11-35.75,41.26-68.71,68.74-97.88,27.49,29.16,50.64,62.12,68.74,97.88H187.26Zm13.27-99.07c-24.58,30.08-44.87,63.42-60.29,99.07H71.53c28.28-48.72,74.64-84.31,129-99.07ZM52.5,192H125.87c-5.53,20.89-8.4,42.39-8.53,64,.14,21.61,3,43.11,8.53,64H52.5c-13.11-41.66-13.11-86.34,0-128Zm19.03,170.67h68.71c15.42,35.65,35.7,69,60.29,99.07-54.36-14.76-100.72-50.36-129-99.07Zm240.04,99.07c24.55-30.08,44.8-63.42,60.18-99.07h68.71c-28.26,48.69-74.57,84.29-128.9,99.07h0Zm147.93-141.74h-73.37c5.53-20.89,8.4-42.39,8.53-64-.14-21.61-3-43.11-8.53-64h73.32c13.11,41.66,13.11,86.34,0,128h.04Z"/></svg>