<?xml version="1.0" encoding="UTF-8"?><svg id="Outline" xmlns="http://www.w3.org/2000/svg" viewBox="0 0 512 512"><path d="M397.99,19.84L137.9,279.94c-20.07,19.96-31.31,47.11-31.23,75.41v28.65c0,11.78,9.55,21.33,21.33,21.33h28.65c28.3,.08,55.46-11.17,75.41-31.23L492.16,114.01c25.96-26.02,25.96-68.14,0-94.17-26.34-25.18-67.83-25.18-94.17,0Zm64,64L201.9,343.94c-12.03,11.96-28.29,18.69-45.25,18.73h-7.32v-7.32c.04-16.96,6.77-33.22,18.73-45.25L428.16,50.01c9.47-9.04,24.37-9.04,33.83,0,9.33,9.35,9.33,24.48,0,33.83Z"/><path d="M490.67,191.55c-11.78,0-21.33,9.55-21.33,21.33v107.11h-85.33c-35.35,0-64,28.65-64,64v85.33H106.67c-35.35,0-64-28.65-64-64V106.67c0-35.35,28.65-64,64-64h192.9c11.78,0,21.33-9.55,21.33-21.33S311.34,0,299.56,0H106.67C47.79,.07,.07,47.79,0,106.67V405.33c.07,58.88,47.79,106.6,106.67,106.67h241.98c28.31,.08,55.47-11.17,75.43-31.23l56.66-56.7c20.07-19.96,31.32-47.11,31.25-75.41V212.89c0-11.78-9.55-21.33-21.33-21.33Zm-96.75,259.05c-8.58,8.55-19.42,14.48-31.25,17.07v-83.67c0-11.78,9.55-21.33,21.33-21.33h83.73c-2.64,11.81-8.55,22.63-17.07,31.23l-56.75,56.7Z"/></svg>