<?xml version="1.0" encoding="UTF-8"?><svg id="Layer_1" xmlns="http://www.w3.org/2000/svg" viewBox="0 0 1361.12 275"><defs><style>.cls-1{fill:#6c757d;}</style></defs><path class="cls-1" d="M1223.62,4.24l133.26,133.26-133.26,133.26-133.26-133.26L1223.62,4.24m0-4.24l-137.5,137.5,137.5,137.5,137.5-137.5L1223.62,0h0Z"/><path class="cls-1" d="M1277.72,111.38c-1.19-1.19-3.18-1.19-4.37,0l-2.75,2.75c-.51,.51-.84,.72-1.03,.78-.16,.05-.34,.05-.69-.06-.03-.01,0-.02-.03-.03-.4-.19-.51-.3-.59-.47-.09-.18-.19-.59-.19-1.31v-3.87c0-1.69-1.4-3.09-3.09-3.09h-6.37c-1.69,0-3.09,1.4-3.09,3.09v3.87c0,.72-.1,1.14-.19,1.31-.08,.16-.22,.27-.56,.44-.39,.13-.57,.18-.75,.12-.19-.06-.52-.27-1.03-.78l-2.75-2.75c-1.19-1.19-3.18-1.19-4.37,0l-4.49,4.49c-1.19,1.19-1.19,3.18,0,4.37l2.75,2.75c.51,.51,.72,.84,.78,1.03,.05,.17,.05,.34-.06,.69,0,.02-.03,.01-.03,.03-.19,.39-.3,.51-.47,.59-.18,.09-.56,.16-1.28,.16h-3.87c-1.69,0-3.09,1.4-3.09,3.09v6.37c0,1.69,1.4,3.09,3.09,3.09h3.87c.72,0,1.13,.1,1.31,.19,.17,.09,.28,.2,.47,.59,.01,.02,.02,0,.03,.03,.11,.35,.08,.55,.03,.72-.06,.19-.27,.52-.78,1.03l-2.72,2.72c-1.19,1.19-1.19,3.18,0,4.37l4.49,4.49c1.19,1.19,3.18,1.19,4.37,0l2.72-2.72c.51-.51,.87-.69,1.06-.75,.17-.06,.36-.07,.75,.06,.35,.17,.51,.31,.59,.47,.09,.18,.15,.56,.16,1.28v3.87c0,1.69,1.4,3.09,3.09,3.09h6.37c1.69,0,3.09-1.4,3.09-3.09v-3.87c0-.72,.1-1.07,.19-1.25,.08-.17,.2-.28,.59-.47,.02-.01,0-.02,.03-.03,.35-.11,.52-.12,.69-.06,.19,.06,.52,.27,1.03,.78l2.75,2.75c1.19,1.19,3.18,1.19,4.37,0l4.49-4.49c1.19-1.19,1.19-3.18,0-4.37l-2.75-2.75c-.51-.51-.72-.84-.78-1.03-.06-.17,0-.35,.12-.75,.17-.34,.28-.48,.44-.56,.18-.09,.56-.22,1.28-.22h3.87c1.69,0,3.09-1.4,3.09-3.09v-6.37c0-1.69-1.4-3.09-3.09-3.09h-3.87c-.72,0-1.1-.07-1.28-.16-.16-.08-.29-.25-.47-.59-.13-.39-.15-.54-.09-.72,.06-.19,.24-.55,.75-1.06l2.75-2.75c1.19-1.19,1.19-3.18,0-4.37l-4.49-4.49Zm-2,2l4.49,4.49c.12,.12,.12,.25,0,.37l-2.75,2.75c-.65,.65-1.16,1.33-1.43,2.18s-.19,1.77,.12,2.62c.02,.04,.04,.08,.06,.13,.38,.82,.95,1.53,1.75,1.93,.8,.41,1.63,.5,2.56,.5l3.9,.03c.17,0,.25,.08,.25,.25v6.37c0,.17-.08,.25-.25,.25h-3.87c-.93,0-1.76,.09-2.56,.5-.8,.41-1.4,1.15-1.78,1.97-.01,.03-.02,.06-.03,.09-.31,.85-.43,1.8-.16,2.65,.28,.85,.81,1.5,1.47,2.15l2.75,2.75c.12,.12,.12,.25,0,.37l-4.49,4.49c-.12,.12-.25,.12-.37,0l-2.75-2.75c-.65-.65-1.3-1.19-2.15-1.47-.85-.28-1.77-.18-2.62,.12-.04,.02-.08,.04-.13,.06-.82,.38-1.53,.95-1.94,1.75-.41,.8-.5,1.63-.5,2.56v3.87c0,.17-.11,.28-.28,.28h-6.37c-.17,0-.25-.08-.25-.25l-.03-3.9c0-.93-.06-1.79-.47-2.59-.41-.8-1.12-1.37-1.93-1.75-.04-.02-.08-.04-.13-.06-.85-.31-1.77-.4-2.62-.12s-1.56,.81-2.22,1.47l-2.72,2.72c-.12,.12-.25,.12-.37,0l-4.49-4.49c-.12-.12-.12-.25,0-.37l2.72-2.72c.65-.65,1.22-1.33,1.5-2.18,.27-.85,.19-1.77-.12-2.62-.02-.04-.04-.08-.06-.13-.38-.82-.98-1.56-1.78-1.97-.8-.41-1.66-.47-2.59-.47h-3.87c-.17,0-.25-.08-.25-.25v-6.37c0-.17,.11-.28,.28-.28h3.87c.93,0,1.76-.09,2.56-.5,.8-.41,1.37-1.12,1.75-1.93,.02-.04,.04-.08,.06-.13,.31-.85,.4-1.77,.12-2.62s-.81-1.5-1.47-2.15l-2.75-2.75c-.12-.12-.12-.25,0-.37l4.49-4.49c.12-.12,.25-.12,.37,0l2.75,2.75c.65,.65,1.3,1.19,2.15,1.47,.85,.28,1.8,.15,2.65-.16,.03,0,.06-.02,.09-.03,.82-.38,1.56-.98,1.97-1.78,.41-.8,.5-1.63,.5-2.56v-3.87c0-.17,.08-.25,.25-.25h6.37c.17,0,.25,.08,.25,.25v3.87c0,.93,.09,1.76,.5,2.56,.41,.8,1.15,1.4,1.97,1.78,.04,.02,.08,.04,.13,.06,.85,.31,1.77,.4,2.62,.12,.85-.27,1.5-.81,2.15-1.47l2.75-2.75c.12-.12,.25-.12,.37,0h0Zm-7.55,12.23c-3.45-3.45-9.1-3.44-12.55,0s-3.42,9.06,.03,12.51,9.07,3.48,12.51,.03,3.45-9.1,0-12.55Zm-2,2c2.37,2.37,2.37,6.19,0,8.55s-6.15,2.34-8.52-.03-2.4-6.15-.03-8.52,6.18-2.37,8.55,0Zm-46.47-7.27c-1.5-1.5-3.99-1.5-5.49,0l-3.99,3.99c-.78,.78-1.38,1.17-1.81,1.31-.42,.13-.8,.1-1.53-.16-.67-.33-1.02-.58-1.22-.97-.21-.4-.31-1.08-.31-2.18v-5.68c0-2.12-1.78-3.9-3.9-3.9l-9.33-.03c-2.12,0-3.9,1.78-3.9,3.9l.03,5.71c0,1.11-.14,1.75-.34,2.15-.2,.38-.52,.67-1.19,1-.73,.25-1.11,.29-1.53,.16-.43-.14-1.03-.53-1.81-1.31l-4.03-4.03c-1.5-1.5-3.99-1.5-5.49,0l-6.59,6.59c-1.5,1.5-1.5,3.99,0,5.49l4.03,4.03c.78,.78,1.17,1.38,1.31,1.81,.13,.42,.1,.8-.16,1.53-.33,.67-.62,.99-1,1.19-.4,.21-1.05,.34-2.15,.34l-5.71-.03c-2.12,0-3.87,1.75-3.87,3.87v9.36c0,2.12,1.78,3.9,3.9,3.9h5.68c1.11,0,1.78,.11,2.18,.31,.38,.2,.64,.55,.97,1.22,.25,.73,.29,1.12,.16,1.53-.14,.43-.5,1-1.28,1.78l-4.03,4.03c-1.5,1.5-1.5,3.99,0,5.49l6.62,6.62c1.5,1.5,3.99,1.5,5.49,0l4.03-4.03c.78-.78,1.35-1.14,1.78-1.28,.41-.13,.8-.1,1.53,.16,.67,.33,1.02,.58,1.22,.97,.21,.4,.31,1.08,.31,2.18l.03,5.71c0,2.12,1.75,3.87,3.87,3.87h9.36c2.12,0,3.87-1.75,3.87-3.87l-.03-5.71c0-1.11,.14-1.75,.34-2.15,.2-.38,.52-.67,1.19-1,.73-.25,1.14-.26,1.56-.13,.43,.14,.99,.5,1.78,1.28l4.03,4.03c1.5,1.5,3.99,1.5,5.49,0l6.59-6.59c1.5-1.5,1.5-3.99,0-5.49l-4.03-4.03c-.78-.78-1.14-1.35-1.28-1.78-.13-.42-.13-.83,.13-1.56,.33-.67,.62-.99,1-1.19,.4-.21,1.05-.34,2.15-.34l5.71,.03c2.13,0,3.9-1.78,3.9-3.9l-.03-9.33c0-2.12-1.75-3.87-3.87-3.87l-5.71-.03c-1.11,0-1.78-.1-2.18-.31-.38-.2-.64-.55-.97-1.22-.25-.73-.29-1.11-.16-1.53,.14-.43,.53-1.03,1.31-1.81l3.99-3.99c1.5-1.5,1.5-3.99,0-5.49l-6.62-6.62Zm-2,2l6.62,6.62c.43,.43,.43,1.07,0,1.5l-3.99,3.99c-.93,.93-1.65,1.84-2,2.93-.35,1.1-.24,2.27,.19,3.43,0,.03,.02,.06,.03,.09,.52,1.12,1.25,2.07,2.28,2.59,1.02,.52,2.21,.65,3.53,.65h5.68c.61,0,1.06,.45,1.06,1.06l-.03,9.33c0,.61-.42,1.03-1.03,1.03h-5.68c-1.31,0-2.47,.16-3.49,.69-1.02,.52-1.79,1.44-2.31,2.56-.01,.03-.02,.06-.03,.09-.42,1.16-.54,2.34-.19,3.43,.35,1.09,1.07,2.01,2,2.93l4.03,4.03c.43,.43,.43,1.07,0,1.5l-6.59,6.59c-.43,.43-1.07,.43-1.5,0l-4.03-4.03c-.93-.93-1.84-1.64-2.93-2-1.09-.35-2.27-.23-3.43,.19-.03,0-.06,.02-.09,.03-1.12,.52-2.03,1.29-2.56,2.31-.52,1.02-.66,2.15-.66,3.46v5.68c0,.61-.45,1.06-1.06,1.06l-9.33,.03c-.61,0-1.06-.45-1.06-1.06v-5.68c0-1.31-.13-2.5-.65-3.53-.53-1.02-1.44-1.79-2.56-2.31-.04,0-.08,0-.12,0-1.16-.42-2.34-.54-3.43-.19-1.1,.35-1.98,1.04-2.9,1.97l-4.03,4.03c-.43,.43-1.07,.43-1.5,0l-6.62-6.62c-.43-.43-.43-1.07,0-1.5l4.03-4.03c.93-.93,1.61-1.81,1.97-2.9,.35-1.1,.24-2.27-.19-3.43,0-.04,0-.08,0-.12-.52-1.12-1.28-2.03-2.31-2.56-1.02-.52-2.18-.62-3.5-.62l-5.71-.03c-.61,0-1.06-.45-1.06-1.06l.03-9.33c0-.61,.45-1.06,1.06-1.06h5.68c1.31,0,2.44-.13,3.46-.66,1.02-.52,1.79-1.44,2.31-2.56,.01-.03,.02-.06,.03-.09,.42-1.16,.54-2.34,.19-3.43-.35-1.09-1.07-2.01-2-2.93l-4.03-4.03c-.43-.43-.43-1.07,0-1.5l6.59-6.59c.43-.43,1.07-.43,1.5,0l4.03,4.03c.93,.93,1.84,1.64,2.93,2,1.1,.35,2.27,.23,3.43-.19,.03,0,.06-.02,.09-.03,1.12-.52,2.04-1.29,2.56-2.31,.52-1.02,.69-2.18,.69-3.49v-5.68c0-.61,.42-1.03,1.03-1.03l9.33-.03c.61,0,1.06,.45,1.06,1.06l.03,5.71c0,1.31,.1,2.47,.62,3.5s1.47,1.76,2.59,2.28c.03,.01,.06,.02,.09,.03,1.16,.42,2.34,.54,3.43,.19,1.1-.35,2.01-1.07,2.93-2l3.99-3.99c.43-.43,1.07-.43,1.5,0Zm-12.05,18.91c-4.82-4.82-12.64-4.84-17.45-.03s-4.82,12.66,0,17.48c4.82,4.82,12.67,4.81,17.48,0s4.79-12.63-.03-17.45Zm-2,2c3.74,3.74,3.76,9.72,.03,13.45-3.73,3.73-9.75,3.74-13.48,0s-3.76-9.78-.03-13.51c3.73-3.73,9.75-3.67,13.48,.06Z"/><path class="cls-1" d="M861.58,4.24l133.26,133.26-133.26,133.26-133.26-133.26L861.58,4.24m0-4.24l-137.5,137.5,137.5,137.5,137.5-137.5L861.58,0h0Z"/><path class="cls-1" d="M916.81,163.74l-32.71-32.71,27.18-27.18c2.13-2.13,3.33-5.02,3.33-8.03,0-3.01-1.19-5.9-3.33-8.03-2.13-2.13-5.02-3.33-8.03-3.33-3.01,0-5.9,1.2-8.03,3.33l-27.18,27.18-32.71-32.71c-.24-.24-.57-.38-.91-.38s-.67,.14-.91,.38l-27.16,27.16c-.24,.24-.38,.57-.38,.91s.14,.67,.38,.91l32.71,32.71-23.66,23.66c-.13,.14-.24,.31-.3,.49,0,.02-.02,.02-.02,.04l-6.47,20.69h0c-.14,.46-.02,.96,.32,1.3,.34,.34,.84,.46,1.3,.32l20.69-6.47s.03-.02,.04-.02h0c.18-.06,.35-.16,.49-.3l23.66-23.66,32.71,32.71c.24,.24,.57,.38,.91,.38s.67-.14,.91-.38l27.16-27.16c.24-.24,.38-.57,.38-.91s-.14-.67-.38-.91h0Zm-81.74,12.66l-5.28-5.28,64.77-64.77,5.28,5.28-64.77,64.77Zm-4.53,4.53l-12.4-12.4,2.7-2.7,12.4,12.4-2.7,2.7Zm56.9-81.69l5.28,5.28-64.77,64.77-5.28-5.28,64.77-64.77Zm4.53-4.53l12.4,12.4-2.7,2.7-12.4-12.4,2.7-2.7Zm5.08-5.08c1.64-1.65,3.87-2.59,6.2-2.59,2.33,0,4.57,.92,6.21,2.57,1.65,1.65,2.57,3.88,2.57,6.21,0,2.33-.94,4.56-2.59,6.2l-3.25,3.25-12.4-12.4,3.25-3.25Zm-62.63-4.62l31.8,31.8-3.34,3.34-31.8-31.79,3.34-3.35Zm1.18,51.84l4.26-4.26h0c.49-.51,.48-1.31-.02-1.81-.5-.5-1.31-.51-1.81-.02l-4.26,4.26-4.64-4.64,4.26-4.26c.49-.51,.48-1.31-.02-1.81-.5-.5-1.31-.51-1.81-.02l-4.26,4.26-4.64-4.64,4.26-4.26h0c.49-.51,.48-1.31-.02-1.81-.5-.5-1.31-.51-1.81-.02l-4.26,4.26-4.64-4.64,4.26-4.26c.49-.51,.48-1.31-.02-1.81-.5-.5-1.31-.51-1.81-.02l-4.26,4.26-5.28-5.28,20.16-20.16,31.79,31.8-20.16,20.16-5.28-5.29Zm-18.69,34.11l11.2,11.2-16.29,5.09,5.09-16.29Zm71.82,19.02l-5.28-5.28,4.26-4.26c.25-.24,.39-.57,.39-.92,0-.35-.13-.68-.38-.93-.25-.24-.58-.38-.93-.38-.35,0-.68,.15-.92,.4l-4.26,4.26-4.64-4.64,4.26-4.26h0c.25-.24,.39-.57,.39-.92,0-.35-.13-.68-.38-.93-.25-.25-.58-.38-.93-.38s-.68,.15-.92,.39l-4.26,4.26-4.64-4.64,4.26-4.26c.25-.24,.39-.57,.39-.92,0-.35-.13-.68-.38-.93s-.58-.38-.93-.38c-.35,0-.68,.15-.92,.4l-4.26,4.26-4.64-4.64,4.26-4.26h0c.49-.51,.48-1.31-.02-1.81-.5-.5-1.31-.51-1.81-.02l-4.26,4.26-5.28-5.28,20.16-20.16,31.8,31.79-20.16,20.16Zm21.98-21.98l-31.8-31.79,3.34-3.34,31.8,31.8-3.34,3.34Z"/><path class="cls-1" d="M499.54,4.24l133.26,133.26-133.26,133.26-133.26-133.26L499.54,4.24m0-4.24l-137.5,137.5,137.5,137.5,137.5-137.5L499.54,0h0Z"/><g><path class="cls-1" d="M460.24,84.88c-.88,0-1.59,.71-1.59,1.59v102.06c0,.88,.71,1.59,1.59,1.59h78.6c.88,0,1.59-.71,1.59-1.59V86.47c0-.88-.71-1.59-1.59-1.59h-78.6Zm77.01,102.06h-75.41V88.07h75.41v98.87Z"/><g><path class="cls-1" d="M469.08,118.08h15.15c.88,0,1.59-.71,1.59-1.59v-18.66c0-.88-.71-1.59-1.59-1.59h-15.15c-.88,0-1.59,.71-1.59,1.59v18.66c0,.88,.71,1.59,1.59,1.59h0Zm1.59-18.66h11.96v15.47h-11.96v-15.47Z"/><path class="cls-1" d="M493.59,107.12h18.87c.88,0,1.59-.71,1.59-1.59s-.71-1.59-1.59-1.59h-18.87c-.88,0-1.59,.71-1.59,1.59s.71,1.59,1.59,1.59Z"/><path class="cls-1" d="M493.59,118.08h36.41c.88,0,1.59-.71,1.59-1.59s-.71-1.59-1.59-1.59h-36.41c-.88,0-1.59,.71-1.59,1.59s.71,1.59,1.59,1.59Z"/></g><g><path class="cls-1" d="M469.08,148.02h15.15c.88,0,1.59-.71,1.59-1.59v-18.66c0-.88-.71-1.59-1.59-1.59h-15.15c-.88,0-1.59,.71-1.59,1.59v18.66c0,.88,.71,1.59,1.59,1.59h0Zm1.59-18.66h11.96v15.47h-11.96v-15.47Z"/><path class="cls-1" d="M493.59,137.06h18.87c.88,0,1.59-.71,1.59-1.59s-.71-1.59-1.59-1.59h-18.87c-.88,0-1.59,.71-1.59,1.59s.71,1.59,1.59,1.59Z"/><path class="cls-1" d="M493.59,148.02h36.41c.88,0,1.59-.71,1.59-1.59s-.71-1.59-1.59-1.59h-36.41c-.88,0-1.59,.71-1.59,1.59s.71,1.59,1.59,1.59Z"/></g><g><path class="cls-1" d="M469.08,177.96h15.15c.88,0,1.59-.71,1.59-1.59v-18.66c0-.88-.71-1.59-1.59-1.59h-15.15c-.88,0-1.59,.71-1.59,1.59v18.66c0,.88,.71,1.59,1.59,1.59h0Zm1.59-18.66h11.96v15.47h-11.96v-15.47Z"/><path class="cls-1" d="M493.59,167h18.87c.88,0,1.59-.71,1.59-1.59s-.71-1.59-1.59-1.59h-18.87c-.88,0-1.59,.71-1.59,1.59s.71,1.59,1.59,1.59Z"/><path class="cls-1" d="M493.59,177.96h36.41c.88,0,1.59-.71,1.59-1.59s-.71-1.59-1.59-1.59h-36.41c-.88,0-1.59,.71-1.59,1.59s.71,1.59,1.59,1.59Z"/></g></g><path class="cls-1" d="M137.5,4.24l133.26,133.26-133.26,133.26L4.24,137.5,137.5,4.24m0-4.24L0,137.5l137.5,137.5,137.5-137.5L137.5,0h0Z"/><path class="cls-1" d="M105.51,185.98c0,1.19-.97,2.15-2.15,2.15s-2.15-.97-2.15-2.15v-15.6c0-8.42,3.45-16.08,9-21.63,5.56-5.56,13.21-9,21.63-9h11.35c8.41,0,16.08,3.45,21.63,9,5.55,5.55,9,13.21,9,21.63v15.6c0,1.19-.97,2.15-2.15,2.15s-2.15-.97-2.15-2.15v-15.6c0-7.24-2.96-13.82-7.73-18.59-4.76-4.77-11.35-7.73-18.59-7.73h-11.35c-7.24,0-13.82,2.96-18.59,7.73-4.77,4.77-7.73,11.35-7.73,18.59v15.6h0Zm32-99.12c6.46,0,12.32,2.63,16.56,6.87,4.24,4.23,6.87,10.1,6.87,16.56s-2.63,12.32-6.86,16.56c-4.24,4.25-10.1,6.87-16.57,6.87s-12.32-2.63-16.56-6.87c-4.24-4.23-6.87-10.1-6.87-16.57s2.63-12.33,6.86-16.57c4.24-4.24,10.1-6.86,16.57-6.86h0Zm13.52,9.91c-3.45-3.46-8.24-5.6-13.52-5.6s-10.06,2.14-13.52,5.6c-3.46,3.46-5.6,8.24-5.6,13.52s2.14,10.07,5.6,13.52c3.45,3.46,8.24,5.6,13.52,5.6s10.06-2.14,13.52-5.6c3.46-3.46,5.6-8.24,5.6-13.52s-2.14-10.06-5.6-13.53h0Z"/></svg>