<?xml version="1.0" encoding="UTF-8"?><svg id="Layer_1" xmlns="http://www.w3.org/2000/svg" viewBox="0 0 1714 413"><defs><style>.cls-1,.cls-2{fill:#fff;}.cls-2,.cls-3,.cls-4{fill-rule:evenodd;}.cls-5,.cls-4{fill:#ed5252;}.cls-6{fill:#d0d0d2;}.cls-3{fill:#fbfbfb;}</style></defs><path class="cls-6" d="M310,0h175V301c0,30-11,58-29,78-18,21-43,34-71,34H210V112c0-31,11-58,29-79C257,13,282,0,310,0Zm145,29h-145c-19,0-36,9-49,24s-21,36-21,59V383h145c19,0,36-9,49-23,13-15,21-36,21-59V29Z"/><path class="cls-1" d="M166,79h142v242c0,24-9,47-24,64s-35,28-58,28H84V171c0-25,9-48,23-64,15-18,36-28,59-28Zm112,29h-112c-14,0-27,7-37,18-9,11-16,27-16,45v212h113c14,0,27-7,36-18,10-11,16-27,16-44V108Z"/><path class="cls-5" d="M63,164h106v178c0,19-6,37-18,49-11,14-27,22-45,22H0V234c0-19,6-36,18-49,11-13,27-21,45-21Zm77,29H63c-9,0-17,5-23,11-7,8-11,18-11,30v149H106c9,0,17-4,23-11,7-7,11-18,11-30V193Z"/><path class="cls-2" d="M719,139c-27,2-38,2-42,29-3,18-3,49,0,67,3,24,20,26,44,27,23,2,49,2,71,0,26-2,38-3,42-29,3-19,3-48,0-67-5-25-18-26-44-28-22-1-49-1-71,1Zm8,32c-13,2-13,7-14,21,0,8,0,28,4,34,6,8,54,6,67,4s13-8,14-22c0-8,1-27-3-33-7-9-55-6-68-4Z"/><path class="cls-2" d="M1166,260l62,1,47-66c3-4,5-7,8-12l6-8c3-3-1,0,4-3v89h37v-122h-61l-65,91v-91h-38v121Z"/><path class="cls-2" d="M848,155v106h38v-29c21,0,63,2,82-3,25-7,25-39,22-61-6-30-27-29-57-29h-85v16Zm37,17c1,6,0,19,0,23,2,7,10,5,19,5,11,0,40,2,46-4,3-3,4-12,2-18-3-7-8-7-18-7-11,0-40-1-49,1Z"/><path class="cls-2" d="M1347,261h124l2,20h37v-52h-11v-90h-39v90h-76v-90h-37v122Z"/><polygon class="cls-2" points="1000 261 1038 261 1038 214 1118 214 1119 261 1157 261 1156 140 1119 139 1119 182 1038 182 1038 139 1000 139 1000 261"/><polygon class="cls-2" points="550 155 550 261 587 261 587 171 671 171 672 139 550 139 550 155"/><path class="cls-5" d="M555,352c3-2,6-3,10-3s6,2,6,5-3,5-8,5h-4v7h4c4,0,9,1,9,6,0,4-3,6-8,6-4,0-8-2-10-3l-2,8c4,2,8,3,13,3,8,0,18-4,18-13,0-6-5-10-10-10v-1c5-1,8-4,8-10s-5-11-15-11c-6,0-10,2-13,4l2,7Z"/><path id="_1" class="cls-5" d="M611,374l3,11h11l-13-43h-13l-13,43h10l3-11h12Zm-11-7l3-9c1-3,1-6,2-9h0c1,3,1,6,2,9l3,9h-10Z"/><path id="_2" class="cls-5" d="M631,385h10c9,0,14-1,17-3,3-3,5-6,5-10,0-5-4-9-9-10h0c5-2,7-6,7-9,0-4-2-7-5-9s-7-2-13-2c-5,0-10,0-12,1v42Zm9-36h4c5,0,7,2,7,5s-2,5-8,5h-3v-10Zm0,17h4c4,0,8,2,8,6,0,5-4,6-8,6h-4v-12Z"/><path id="_3" class="cls-5" d="M688,341c-13,0-21,10-21,23,0,12,7,22,20,22s21-9,21-23c0-12-7-22-20-22Zm0,8c6,0,10,7,10,14,0,9-4,15-10,15-7,0-11-6-11-14,0-9,4-15,11-15Z"/><path id="_4" class="cls-5" d="M719,342v11c0,6-1,10-2,15-1,3-2,6-4,9l-3,1v18h7l1-11h25l1,11h7v-18l-4-1v-35h-28Zm9,8h9v27h-14c1-2,2-5,3-7,1-5,2-9,2-14v-6Z"/><path id="_5" class="cls-5" d="M792,374l3,11h11l-14-43h-12l-13,43h10l3-11h12Zm-11-7l3-9c0-3,1-6,2-9h0c0,3,1,6,2,9l3,9h-10Z"/><path id="_6" class="cls-5" d="M816,342v19c0,6-1,12-3,15-1,1-3,2-5,2l1,8c4,0,7-1,9-2,6-4,8-13,8-24v-10h9v35h10v-43h-29Z"/><path id="_7" class="cls-5" d="M854,342v43h9v-18h5c1,11,8,19,19,19s19-9,19-23c0-12-7-22-19-22-10,0-17,7-19,18h-5v-17h-9Zm33,36c-6,0-9-6-9-14s3-15,9-15,9,7,9,14c0,9-3,15-9,15Z"/><path id="_8" class="cls-5" d="M949,385h9l-2-43h-13l-4,14c-2,5-3,11-4,16h-1c-1-5-2-11-3-16l-4-14h-13l-3,43h9l1-16v-18h1c1,5,2,12,3,17l5,16h8l5-16c1-6,3-12,5-17h0v18l1,16Z"/><path id="_9" class="cls-5" d="M966,342v43h11l9-16c2-4,5-10,7-15h0c-1,6-1,12-1,18v13h9v-43h-10l-9,17c-2,5-5,10-8,15h0c1-6,1-12,1-19v-13h-9Z"/><polygon id="_10" class="cls-5" points="1010 342 1010 385 1019 385 1019 367 1035 367 1035 385 1045 385 1045 342 1035 342 1035 359 1019 359 1019 342 1010 342"/><path id="_11" class="cls-5" d="M1054,342v43h11l8-16c3-4,6-10,8-15h0c-1,6-1,12-1,18v13h9v-43h-10l-9,17c-3,5-5,10-8,15h0c0-6,1-12,1-19v-13h-9Z"/><polygon id="_12" class="cls-5" points="1123 359 1107 359 1107 350 1124 350 1124 342 1098 342 1098 385 1125 385 1125 377 1107 377 1107 367 1123 367 1123 359"/><path id="_13" class="cls-5" d="M1132,385h10c9,0,14-1,17-3,3-3,4-6,4-10,0-5-3-9-8-10h0c5-2,7-6,7-9,0-4-2-7-5-9s-7-2-13-2c-5,0-10,0-12,1v42Zm9-36h4c5,0,7,2,7,5s-2,5-8,5h-3v-10Zm0,17h4c4,0,8,2,8,6,0,5-4,6-8,6h-4v-12Z"/><path id="_14" class="cls-5" d="M1170,342v43h11c6,0,13-1,17-5,2-2,4-5,4-9,0-10-9-14-17-14h-5v-15h-10Zm10,22h3c4,0,8,2,8,7s-4,7-8,7h-3v-14Zm26-22v43h9v-43h-9Z"/><path id="_15" class="cls-5" d="M1258,385l-12-22,12-21h-11l-4,8c-1,2-2,4-3,7h0c-1-2-2-5-3-7l-4-8h-11l12,21-13,22h11l4-8c1-3,2-5,3-8h0c2,3,3,5,4,8l4,8h11Z"/><path id="_16" class="cls-5" d="M1276,342v43h10v-18h2c5,0,7,4,8,9,2,3,2,6,4,9h10c-2-4-3-9-5-14s-4-9-10-10l15-19h-11l-12,18h-1v-18h-10Z"/><path id="_17" class="cls-5" d="M1333,341c-13,0-21,10-21,23,0,12,7,22,20,22s21-9,21-23c0-12-7-22-20-22Zm0,8c6,0,10,7,10,14,0,9-4,15-10,15-7,0-11-6-11-14,0-9,4-15,11-15Z"/><polygon id="_18" class="cls-5" points="1360 342 1360 385 1369 385 1369 367 1385 367 1385 385 1395 385 1395 342 1385 342 1385 359 1369 359 1369 342 1360 342"/><path id="_19" class="cls-5" d="M1433,376c-1,1-5,2-8,2-8,0-13-6-13-14,0-10,6-15,13-15,4,0,7,1,8,2l2-8c-1-1-5-2-10-2-13,0-24,8-24,23,0,12,8,22,23,22,5,0,9-1,11-2l-2-8Z"/><polygon id="_20" class="cls-5" points="1451 385 1461 385 1461 350 1472 350 1472 342 1439 342 1439 350 1451 350 1451 385"/><path id="_21" class="cls-5" d="M1477,385h10v-15h3c6,0,11-2,14-5,3-2,4-6,4-10s-1-8-4-10-7-3-13-3-11,0-14,1v42Zm10-36h4c5,0,8,2,8,6,0,5-4,7-9,7h-3v-13Z"/><path id="_22" class="cls-5" d="M1510,342l14,30c1,0,1,1,1,2-1,2-3,4-6,4-2,0-3,0-4-1v8c1,1,2,1,5,1,5,0,8-2,11-6s6-10,8-17l9-21h-11l-4,15c-1,4-2,7-3,9h0l-3-9-6-15h-11Z"/><path id="_23" class="cls-5" d="M1551,342v43h10v-18h2c5,0,7,4,8,9,2,3,2,6,4,9h10c-2-4-3-9-5-14-1-5-4-9-10-10l15-19h-11l-12,18h-1v-18h-10Z"/><polygon id="_24" class="cls-5" points="1590 342 1590 385 1620 385 1621 396 1628 396 1629 378 1624 377 1624 342 1615 342 1615 377 1600 377 1600 342 1590 342"/><path id="_25" class="cls-5" d="M1634,342v43h11l9-16c2-4,5-10,7-15h0v31h9v-43h-10l-10,17c-2,5-5,10-7,15h0v-32h-9Z"/><path id="_26" class="cls-5" d="M1678,342v43h11l9-16c2-4,5-10,7-15h0v31h9v-43h-10l-10,17c-2,5-5,10-7,15h0v-32h-9Zm8-10c1,6,4,8,10,8,5,0,9-2,9-8h-6c0,3-1,4-3,4s-3-1-3-4h-7Z"/><path class="cls-4" d="M1624,202h22l-1,22h-21v-22Zm-32,0h22v22h-22v-22Zm-53,61h53v-32h22v32h9l1-32h21l1,32h53c-3-7-77-101-80-104l-80,104Z"/><path class="cls-2" d="M1527,263q5-2,8-6c2-3,3-4,5-7l79-100,84,107c3,5,2,4,7,6l-59-122h-64c-11,18-20,41-30,60l-30,62Z"/><polygon class="cls-3" points="1624 224 1645 224 1646 202 1624 202 1624 224"/><polygon class="cls-3" points="1592 224 1614 224 1614 202 1592 202 1592 224"/></svg>