<?xml version="1.0" encoding="UTF-8"?><svg id="Outline" xmlns="http://www.w3.org/2000/svg" viewBox="0 0 429.01 512.02" fill="#ffffff"><path d="M214.51,128.02c-47.13,0-85.33,38.21-85.33,85.33s38.21,85.33,85.33,85.33,85.33-38.21,85.33-85.33-38.21-85.33-85.33-85.33Zm0,128c-23.56,0-42.67-19.1-42.67-42.67s19.1-42.67,42.67-42.67,42.67,19.1,42.67,42.67-19.1,42.67-42.67,42.67Z"/><path d="M214.51,512.02c-36.45,.19-70.73-17.31-91.97-46.93C41.24,352.94,0,268.63,0,214.49,.01,96.02,96.06-.01,214.53,0c118.45,.01,214.47,96.03,214.49,214.49,0,54.14-41.24,138.45-122.54,250.6-21.24,29.63-55.52,47.12-91.97,46.93Zm0-465.47c-92.73,.11-167.87,75.25-167.98,167.98,0,42.88,40.38,122.18,113.69,223.27,21.77,29.99,63.73,36.65,93.71,14.88,5.71-4.15,10.73-9.17,14.88-14.88,73.3-101.1,113.69-180.39,113.69-223.27-.11-92.73-75.25-167.87-167.98-167.98Z"/></svg>