<?xml version="1.0" encoding="UTF-8"?><svg id="Layer_1" xmlns="http://www.w3.org/2000/svg" viewBox="0 0 512.05 512.04"><path fill="#f13a3a" d="M273.87,.63C132.83-9.23,10.49,97.1,.62,238.14c-.84,12.03-.83,24.11,.03,36.14,9.41,135.53,129.13,237.76,278.49,237.76h126.23c58.88-.07,106.6-47.79,106.67-106.67v-142.08C513.68,126.88,409.79,12.3,273.87,.63Zm125.1,206.59l-144.92,143.08c-16.65,16.59-43.57,16.59-60.22,0l-80.73-79.02c-8.42-8.25-8.57-21.76-.32-30.19,8.25-8.42,21.76-8.57,30.19-.32h0l80.92,79.08,145.19-142.93c8.85-7.78,22.33-6.92,30.11,1.92,7.18,8.16,7.08,20.42-.24,28.45l.02-.09Z"/></svg>