<?xml version="1.0" encoding="UTF-8"?><svg id="Layer_1" xmlns="http://www.w3.org/2000/svg" viewBox="0 0 24 14.28"><defs><style>.cls-1{fill:#fff;}</style></defs><path class="cls-1" d="M23.45,.98c-.27,.85-.63,1.59-1.09,2.26l.02-.03c-.45,.75-.98,1.61-1.6,2.59-.53,.77-.82,1.17-.85,1.2-.14,.17-.23,.39-.27,.62h0c.03,.22,.12,.4,.27,.54l.4,.45c2.14,2.2,3.34,3.72,3.61,4.55,.03,.09,.06,.2,.06,.31,0,.19-.06,.37-.17,.52h0c-.18,.18-.42,.29-.69,.29-.03,0-.06,0-.09,0h-2.63c-.34,0-.65-.12-.89-.31h0c-.35-.29-.67-.6-.95-.95h0c-.46-.53-.87-.97-1.23-1.33-1.19-1.13-2.06-1.69-2.63-1.69-.02,0-.05,0-.07,0-.16,0-.32,.05-.45,.14h0c-.1,.13-.17,.3-.17,.48,0,.04,0,.07,0,.1h0c-.03,.31-.04,.68-.04,1.04,0,.12,0,.24,0,.35v1.14s.02,.1,.02,.16c0,.24-.11,.46-.28,.6h0c-.39,.18-.84,.28-1.32,.28-.1,0-.2,0-.3-.01h.01c-1.57-.03-3.03-.49-4.28-1.27l.03,.02c-1.51-.92-2.76-2.11-3.72-3.52l-.03-.04c-.91-1.2-1.75-2.56-2.47-3.99l-.07-.15c-.42-.8-.86-1.79-1.23-2.8l-.06-.18C.16,1.87,.05,1.34,0,.79v-.03C0,.26,.3,0,.89,0H3.52s.05,0,.08,0c.25,0,.48,.09,.66,.23h0c.2,.22,.35,.49,.42,.79h0c.48,1.38,1,2.53,1.59,3.63l-.07-.14c.48,.97,1.01,1.81,1.62,2.58l-.02-.03c.53,.65,.95,.98,1.25,.98,0,0,.02,0,.03,0,.15,0,.28-.08,.35-.2h0c.07-.19,.12-.41,.12-.64,0-.05,0-.1,0-.15h0s0-3.87,0-3.87c-.02-.46-.13-.88-.32-1.27v.02c-.12-.26-.26-.49-.44-.7h0c-.16-.16-.28-.38-.31-.61h0c0-.18,.08-.33,.2-.43h0c.12-.11,.28-.18,.46-.18h4.15s.05,0,.07,0c.19,0,.37,.09,.49,.23h0c.1,.19,.16,.41,.16,.65,0,.04,0,.07,0,.11h0s0,5.17,0,5.17c0,.02,0,.05,0,.08,0,.18,.05,.36,.14,.5h0c.07,.1,.19,.17,.33,.17h0c.18-.01,.34-.07,.47-.16h0c.27-.19,.51-.4,.71-.64h0c.61-.69,1.17-1.45,1.65-2.26l.04-.07c.34-.57,.72-1.27,1.05-1.99l.06-.15,.45-.89c.16-.45,.57-.76,1.06-.76,.02,0,.04,0,.06,0h2.63c.71,0,.98,.33,.8,.98h0Z"/></svg>