<?xml version="1.0" encoding="UTF-8"?><svg id="Outline" xmlns="http://www.w3.org/2000/svg" viewBox="0 0 512 512"><path d="M256,0C114.62,0,0,114.62,0,256s114.62,256,256,256,256-114.62,256-256C511.85,114.68,397.32,.15,256,0Zm0,469.33c-117.82,0-213.33-95.51-213.33-213.33S138.18,42.67,256,42.67s213.33,95.51,213.33,213.33c-.13,117.77-95.57,213.2-213.33,213.33Z"/><path d="M256,128c-11.78,0-21.33,9.55-21.33,21.33v92.27l-71.91,45.06c-10.01,6.26-13.06,19.45-6.81,29.46,6.26,10.01,19.45,13.06,29.46,6.81l81.92-51.2c6.29-3.94,10.08-10.88,10.01-18.3v-104.09c0-11.78-9.55-21.33-21.33-21.33Z"/></svg>