<?xml version="1.0" encoding="utf-8"?>
<!-- Generator: Adobe Illustrator 28.1.0, SVG Export Plug-In . SVG Version: 6.00 Build 0)  -->
<svg version="1.1" id="a" xmlns="http://www.w3.org/2000/svg" xmlns:xlink="http://www.w3.org/1999/xlink" x="0px" y="0px"
	 viewBox="0 0 3068.8 692.7" style="enable-background:new 0 0 3068.8 692.7;" xml:space="preserve">
<style type="text/css">
	.st0{fill:#008B29;}
	.st1{fill:#CCCCCC;}
	.st2{fill:#BB1E10;}
	.st3{fill:#56AF3A;}
	.st4{fill-rule:evenodd;clip-rule:evenodd;fill:#CCCCCC;}
	.st5{fill-rule:evenodd;clip-rule:evenodd;fill:#BB1E10;}
</style>
<path class="st0" d="M608.8,633c0,25.6-15.4,41.2-38,41.2s-36.4-17.6-36.4-39.8c0-23.4,14.8-40.9,37.6-40.9S608.8,611.4,608.8,633
	L608.8,633z M552.9,634L552.9,634c0,15.3,7.1,26,18.8,26s18.6-11.3,18.6-26.5c0-14-6.7-26.1-18.7-26.1S552.9,618.7,552.9,634
	L552.9,634z M713.3,594.7L713.3,594.7v32.5h1.5l21.3-32.5h21.2l-27,34.7c10,2.6,14.5,9.5,17.7,18.9c2.7,8.3,5.3,16.8,9,24.6h-18.8
	c-2.7-5.3-4.2-11.4-6-17.2c-2.6-8.8-6.2-15.5-15.6-15.5h-3.3v32.7H696v-78.2L713.3,594.7L713.3,594.7z M858.7,594.7L858.7,594.7v30
	h28.8v-30h17.4v78.2h-17.4v-32.7h-28.8v32.7h-17.6v-78.2H858.7z M1014,652.8L1014,652.8l-5.5,20.1h-18.1l23.6-78.2h22.9l24,78.2
	h-18.8l-6-20.1H1014L1014,652.8z M1033.6,639.5L1033.6,639.5l-4.8-16.6c-1.4-4.6-2.8-10.4-3.9-15.1h-0.2c-1.1,4.6-2.3,10.5-3.5,15.1
	l-4.6,16.6H1033.6L1033.6,639.5z M1263.5,594.7L1263.5,594.7v30h28.8v-30h17.4v78.2h-17.4v-32.7h-28.8v32.7h-17.5v-78.2H1263.5z
	 M1418.8,652.8L1418.8,652.8l-5.5,20.1h-18.2l23.7-78.2h23l24,78.2h-18.8l-6-20.1H1418.8L1418.8,652.8z M1438.4,639.5L1438.4,639.5
	l-4.8-16.6c-1.4-4.6-2.8-10.4-3.9-15.1h-0.2c-1.1,4.6-2.3,10.5-3.5,15.1l-4.6,16.6H1438.4L1438.4,639.5z M1569,594.7L1569,594.7
	v63.7h19.1v-63.7h17.1v63.7h19.2v-63.7h17.1v78.2h-89.7v-78.2H1569L1569,594.7L1569,594.7z M1778.3,639.8h-28.5v18.5h31.8v14.5
	h-49.3v-78.2h47.8v14.5h-30.2v16.2h28.5L1778.3,639.8L1778.3,639.8L1778.3,639.8z M1916.2,594.7L1916.2,594.7v14.5h-29.3v63.7h-17.5
	v-78.2H1916.2L1916.2,594.7z M2072,633L2072,633c0,25.6-15.4,41.2-38,41.2s-36.4-17.6-36.4-39.8c0-23.4,14.8-40.9,37.6-40.9
	C2058.1,593.4,2072,611.4,2072,633L2072,633L2072,633z M2016.1,634L2016.1,634c0,15.3,7.1,26,18.9,26s18.6-11.3,18.6-26.5
	c0-14-6.6-26.1-18.7-26.1S2016.1,618.7,2016.1,634z M2305,594.7L2305,594.7v14.5h-29.3v63.7h-17.6v-78.2H2305z M2460.8,633
	L2460.8,633c0,25.6-15.4,41.2-38,41.2s-36.4-17.6-36.4-39.8c0-23.4,14.8-40.9,37.6-40.9S2460.8,611.4,2460.8,633L2460.8,633
	L2460.8,633z M2404.9,634L2404.9,634c0,15.3,7.1,26,18.8,26s18.6-11.3,18.6-26.5c0-14-6.6-26.1-18.7-26.1S2404.9,618.7,2404.9,634
	L2404.9,634z M2548.1,595.8L2548.1,595.8c5.3-1,12.9-1.7,23.6-1.7s18.4,2.1,23.6,6.3c5,3.9,8.3,10.4,8.3,18.1s-2.5,14.2-7.1,18.6
	c-6,5.7-14.8,8.2-25.1,8.2c-2.4,0-4.4-0.1-6-0.3v28h-17.3L2548.1,595.8L2548.1,595.8L2548.1,595.8z M2565.4,631.2L2565.4,631.2
	c1.5,0.3,3.4,0.4,5.9,0.4c9.3,0,15-4.8,15-12.8c0-7.2-4.9-11.5-13.7-11.5c-3.6,0-5.9,0.4-7.2,0.7L2565.4,631.2L2565.4,631.2
	L2565.4,631.2z M2761.3,633L2761.3,633c0,25.6-15.4,41.2-38,41.2s-36.4-17.6-36.4-39.8c0-23.4,14.8-40.9,37.6-40.9
	S2761.3,611.4,2761.3,633L2761.3,633z M2705.4,634L2705.4,634c0,15.3,7.1,26,18.8,26s18.6-11.3,18.6-26.5c0-14-6.7-26.1-18.7-26.1
	S2705.4,618.7,2705.4,634L2705.4,634z M2909.9,594.7L2909.9,594.7v64.2l7.7,0.5l-0.8,33.3h-13.3l-0.8-19.8h-45.3l-0.9,19.8h-13.4
	l-0.6-33.3l6.4-0.5c3.1-5.5,5.6-11.2,7.3-17.4c2.2-7.9,3.1-16.5,3.1-26v-20.9H2909.9L2909.9,594.7z M2875.5,619.5L2875.5,619.5
	c0,9-1.1,17.8-3.4,25.6c-1.4,4.9-3.4,9.6-5.4,13.4h25.8v-49.4h-16.9L2875.5,619.5L2875.5,619.5L2875.5,619.5z M3021.2,652.8
	L3021.2,652.8l-5.5,20.1h-18.1l23.6-78.2h23l23.9,78.2h-18.8l-6-20.1H3021.2z M3040.9,639.5L3040.9,639.5L3036,623
	c-1.4-4.6-2.8-10.4-3.9-15.1h-0.2c-1.2,4.6-2.2,10.5-3.6,15.1l-4.6,16.6H3040.9L3040.9,639.5z"/>
<path class="st1" d="M132.4,0C96.6,0,64.9,13.4,39.3,40.1C13.2,65.9,0,98.1,0,134.6v436.9h100.2V134.6c0-9.8,3.1-17.3,9.7-24
	c6.6-6.7,13.7-9.4,23.4-9.4h199v-0.7h100.1V0H132.4z"/>
<path class="st0" d="M332.2,101.2v217.7H231.9V101.2h-28.7v217.7H100.2v29h103.1v223.6H100.2v101.2H300c35.7,0,67.5-13.4,93.1-40.1
	c26-25.8,39.3-58,39.3-94.6V101.2H332.2z M231.9,347.9h100.3V538c0,9.8-3.1,17.4-9.7,24.1c-6.6,6.7-13.7,9.4-23.4,9.4h-67.2V347.9
	L231.9,347.9z"/>
<polygon class="st2" points="99.5,571.5 0,571.5 0,672.6 100.2,672.6 100.2,571.5 "/>
<polygon class="st3" points="332.2,101.2 332.8,101.2 432.3,101.2 432.3,100.4 332.2,100.4 "/>
<polygon class="st4" points="534.4,225.3 800.7,225.3 802.5,225.3 802.5,295 616.9,295 616.9,494.7 534.4,494.7 "/>
<path class="st4" d="M1141.7,242.2c-17-13.8-68-20.7-153.2-20.7h-0.2c-85.5,0-136.8,7-153.8,21.1c-15.5,12.8-23.2,51.9-23.2,117.5
	c0,47.7,2.5,79,7.5,93.8c6.5,19.3,22,31.9,46.5,37.7c19.5,4.5,60.5,6.8,123,6.8h0.2c85.4,0,136.6-7,153.6-20.8
	c15.8-12.7,23.7-52,23.7-117.5S1157.7,255.4,1141.7,242.2L1141.7,242.2L1141.7,242.2z M1071.4,420.2L1071.4,420.2
	c-7.9,5.7-35.5,8.5-82.9,8.5h-0.2c-47.3,0-74.8-2.8-82.7-8.5c-7.9-5.6-11.9-25.6-11.9-60s4-54.8,11.9-60.5
	c7.8-5.6,35.5-8.5,82.9-8.5h0.2c47.2,0,74.8,2.9,82.7,8.5c7.8,5.6,11.8,25.8,11.8,60.5S1079.2,414.6,1071.4,420.2L1071.4,420.2z"/>
<path class="st4" d="M1480.8,241.5c-14-10.8-43-16.2-87-16.2H1192v269.4h82.5v-66h119.3c44,0,73.1-5.5,87.4-16.5
	c17.3-13.4,25.9-41.7,25.9-85.1S1498.3,254.8,1480.8,241.5L1480.8,241.5L1480.8,241.5z M1416,352.6L1416,352.6
	c-5,4.3-12.4,6.4-22.1,6.4h-119.3v-64h119.3c9.8,0,17.1,2.1,22.1,6.4c6,5.3,9,13.8,9,25.6S1421.9,347.6,1416,352.6L1416,352.6
	L1416,352.6z"/>
<polygon class="st4" points="1529.3,225.7 1611.8,225.7 1611.8,319.9 1790,319.9 1790,225.7 1872.5,225.7 1872.5,494.7 1790,494.7 
	1790,389.6 1611.8,389.6 1611.8,494.7 1529.3,494.7 "/>
<path class="st4" d="M2375.6,424.9h168.8V225.3h82.5v199.6h26.2v113h-82.5v-26.4c0-6-1.3-10.3-3.9-12.9c-2.7-2.6-7.2-3.9-13.8-3.9
	h-259.9V225.3h82.5L2375.6,424.9L2375.6,424.9L2375.6,424.9z"/>
<polygon class="st4" points="2794,225.6 2936,225.6 3068.8,494.7 3061.5,494.7 2864.7,241.7 2668.6,494.7 2661.2,494.7 "/>
<path class="st5" d="M2864.7,264.2l178.6,231h-118.1v-70.8h-50.5v70.8h-19.4v-70.8h-50.4v70.8h-118.1L2864.7,264.2L2864.7,264.2
	L2864.7,264.2z M2804.8,359.5L2804.8,359.5v49.9h50.4v-49.9H2804.8z M2874.7,359.5L2874.7,359.5v49.9h50.5v-49.9H2874.7z"/>
<polygon class="st4" points="2121.3,225.7 1976.8,429 1976.8,225.7 1894.3,225.7 1894.3,494.7 2029.4,494.7 2173.7,291.1 
	2173.7,494.7 2256.2,494.7 2256.2,225.7 "/>
</svg>
