<?xml version="1.0" encoding="utf-8"?>
<!-- Generator: Adobe Illustrator 28.1.0, SVG Export Plug-In . SVG Version: 6.00 Build 0)  -->
<svg version="1.1" id="a" xmlns="http://www.w3.org/2000/svg" xmlns:xlink="http://www.w3.org/1999/xlink" x="0px" y="0px"
	 viewBox="0 0 432.3 672.6" style="enable-background:new 0 0 432.3 672.6;" xml:space="preserve">
<style type="text/css">
	.st0{fill:#CCCCCC;}
	.st1{fill:#008B29;}
	.st2{fill:#BB1E10;}
	.st3{fill:#56AF3A;}
</style>
<path class="st0" d="M132.4,0C96.6,0,64.9,13.4,39.3,40.1C13.2,65.9,0,98.1,0,134.6v436.9h100.2V134.6c0-9.8,3.1-17.3,9.7-24
	c6.6-6.7,13.7-9.4,23.4-9.4h199v-0.7h100.1V0H132.4z"/>
<path class="st1" d="M332.2,101.2v217.7H231.9V101.2h-28.7v217.7H100.2v29h103.1v223.6H100.2v101.2H300c35.7,0,67.5-13.4,93.1-40.1
	c26-25.8,39.3-58,39.3-94.6V101.2H332.2z M231.9,347.9h100.3V538c0,9.8-3.1,17.4-9.7,24.1c-6.6,6.7-13.7,9.4-23.4,9.4h-67.2V347.9
	L231.9,347.9z"/>
<polygon class="st2" points="99.5,571.5 0,571.5 0,672.6 100.2,672.6 100.2,571.5 "/>
<polygon class="st3" points="332.2,101.2 332.8,101.2 432.3,101.2 432.3,100.4 332.2,100.4 "/>
</svg>
