<?xml version="1.0" encoding="UTF-8"?><svg id="Layer_1" xmlns="http://www.w3.org/2000/svg" viewBox="0 0 532 684.48"><defs><style>.cls-1{fill:#fff;}.cls-2{fill:#f13a3a;}</style></defs><path class="cls-2" d="M532,0H0V578.16H181.6l84.4,106.32,84.4-106.32h181.6V0Z"/><g><path class="cls-1" d="M316.72,129.41h131.5v226.18c0,22.54-8.27,43.58-21.79,58.61-13.53,15.78-32.31,25.55-53.35,25.55H241.58V213.57c0-23.29,8.27-43.58,21.79-59.36,13.53-15.03,32.31-24.8,53.35-24.8Zm108.96,21.79h-108.96c-14.28,0-27.05,6.76-36.82,18.03s-15.78,27.05-15.78,44.33v203.64h108.96c14.28,0,27.05-6.76,36.82-17.28,9.77-11.27,15.78-27.05,15.78-44.33V151.2Z"/><path class="cls-1" d="M208.52,188.77h106.7v181.85c0,18.03-6.76,35.32-18.03,48.09s-26.3,21.04-43.58,21.04h-106.7v-181.85c0-18.79,6.76-36.07,17.28-48.09,11.27-13.53,27.05-21.04,44.33-21.04Zm84.16,21.79h-84.16c-10.52,0-20.29,5.26-27.8,13.53-6.76,8.27-12.02,20.29-12.02,33.81v159.3h84.91c10.52,0,20.29-5.26,27.05-13.53,7.51-8.27,12.02-20.29,12.02-33.06V210.56Z"/><path class="cls-1" d="M131.12,252.64h79.65v133.76c0,14.28-4.51,27.8-13.53,36.82-8.27,10.52-20.29,16.53-33.81,16.53H83.78v-134.51c0-14.28,4.51-27.05,13.53-36.82,8.27-9.77,20.29-15.78,33.81-15.78Zm57.86,21.79h-57.86c-6.76,0-12.77,3.76-17.28,8.27-5.26,6.01-8.27,13.53-8.27,22.54v111.96h57.86c6.76,0,12.77-3.01,17.28-8.27,5.26-5.26,8.27-13.53,8.27-22.54v-111.96Z"/></g></svg>