<?xml version="1.0" encoding="UTF-8"?><svg id="Capa_1" xmlns="http://www.w3.org/2000/svg" viewBox="0 0 511.95 512"><path d="M502.61,457.49l-99.1-99.14c74.15-99.09,53.93-239.53-45.16-313.67S118.83-9.26,44.69,89.83C-29.46,188.92-9.25,329.36,89.84,403.51c79.6,59.56,188.92,59.56,268.52,0l99.14,99.14c12.46,12.46,32.66,12.46,45.11,0,12.46-12.46,12.46-32.66,0-45.11v-.04h0Zm-277.69-73.13c-88.07,0-159.46-71.39-159.46-159.46S136.86,65.46,224.93,65.46s159.46,71.39,159.46,159.46c-.09,88.03-71.43,159.36-159.46,159.46h-.01Z"/></svg>