<?xml version="1.0" encoding="UTF-8"?><svg id="a" xmlns="http://www.w3.org/2000/svg" xmlns:xlink="http://www.w3.org/1999/xlink" viewBox="0 0 1000 1000"><defs><style>.e{fill:url(#b);}.e,.f{stroke-width:0px;}.f{fill:#fff;fill-rule:evenodd;}</style><linearGradient id="b" x1="-458.04" y1="1040.96" x2="-458.04" y2="1039.97" gradientTransform="translate(458541 1040961) scale(1000 -1000)" gradientUnits="userSpaceOnUse"><stop offset="0" stop-color="#2aabee"/><stop offset="1" stop-color="#229ed9"/></linearGradient></defs><circle id="c" class="e" cx="500" cy="500" r="500"/><path id="d" class="f" d="M226.33,494.72c145.76-63.51,242.96-105.37,291.59-125.6,138.86-57.75,167.71-67.79,186.51-68.12,4.14-.07,13.38.95,19.38,5.81,5.06,4.1,6.45,9.65,7.12,13.54s1.5,12.76.84,19.68c-7.52,79.06-40.08,270.92-56.65,359.47-7.01,37.47-20.81,50.03-34.17,51.26-29.04,2.67-51.08-19.19-79.21-37.62-44.01-28.85-68.87-46.8-111.58-74.95-49.37-32.53-17.36-50.41,10.77-79.63,7.36-7.65,135.3-124.01,137.77-134.57.31-1.32.6-6.24-2.33-8.84s-7.24-1.71-10.35-1c-4.41,1-74.71,47.47-210.9,139.4-19.95,13.7-38.03,20.38-54.22,20.03-17.85-.39-52.19-10.09-77.72-18.39-31.31-10.18-56.2-15.56-54.03-32.85,1.13-9,13.53-18.21,37.2-27.62Z"/></svg>