<?xml version="1.0" encoding="UTF-8"?><svg id="Layer_1" xmlns="http://www.w3.org/2000/svg" viewBox="0 0 415.63 411.18"><defs><style>.cls-1{fill:#f13b3b;}</style></defs><path class="cls-1" d="M116.29,169.79c-4.11-4.43-11.03-4.69-15.46-.59-4.43,4.11-4.69,11.03-.59,15.46l84.54,91.21c2.02,2.18,4.84,3.44,7.82,3.5,.07,0,.14,0,.21,0,2.9,0,5.68-1.15,7.73-3.2L412.43,64.27c4.27-4.27,4.27-11.19,0-15.47-4.27-4.27-11.2-4.27-15.47,0L193.1,252.67l-76.81-82.88Z"/><path class="cls-1" d="M240.07,0H43.75C19.62,0,0,19.62,0,43.75V367.43c0,24.12,19.62,43.75,43.75,43.75H367.43c24.12,0,43.75-19.62,43.75-43.75v-107.34c0-6.04-4.9-10.94-10.94-10.94s-10.94,4.9-10.94,10.94v107.34c0,12.06-9.81,21.88-21.88,21.88H43.75c-12.06,0-21.88-9.81-21.88-21.88V43.76c0-12.06,9.81-21.88,21.88-21.88H240.07c6.04,0,10.94-4.9,10.94-10.94S246.11,0,240.07,0h0Z"/></svg>