<?xml version="1.0" encoding="UTF-8"?><svg id="Layer_1" xmlns="http://www.w3.org/2000/svg" viewBox="0 0 20 20" fill="#fff"><path d="M5.25,16.49l.72,.42c1.22,.71,2.61,1.09,4.02,1.08,4.42,0,8-3.58,8-8S14.42,2,10,2,2,5.58,2,10c0,1.44,.38,2.81,1.08,4.02l.42,.72-.65,2.4s2.4-.66,2.4-.66ZM0,20l1.35-4.97C.47,13.5,0,11.77,0,10,0,4.48,4.48,0,10,0s10,4.48,10,10-4.48,10-10,10c-1.77,0-3.5-.46-5.03-1.35L0,20ZM6.39,5.31c.13-.01,.27-.01,.4,0,.05,0,.11,.01,.16,.02,.16,.02,.33,.11,.39,.25,.3,.68,.59,1.36,.87,2.04,.06,.15,.02,.35-.09,.54-.08,.13-.17,.25-.26,.37-.11,.15-.36,.41-.36,.41,0,0-.1,.12-.06,.27,.01,.06,.06,.14,.1,.2l.06,.1c.26,.43,.6,.86,1.02,1.27,.12,.12,.24,.23,.36,.35,.47,.41,1,.75,1.57,1h0c.09,.04,.13,.06,.25,.11,.06,.03,.13,.05,.19,.07,.14,.03,.28-.02,.37-.13,.72-.88,.79-.93,.8-.93h0c.1-.09,.24-.14,.38-.12,.06,0,.12,.02,.18,.04,.53,.24,1.4,.62,1.4,.62l.58,.26c.1,.05,.19,.16,.19,.27,0,.07,.01,.18-.01,.37-.03,.26-.11,.57-.19,.73-.05,.11-.12,.21-.21,.3-.1,.11-.21,.2-.33,.29-.04,.03-.08,.06-.12,.09-.12,.08-.25,.15-.38,.22-.26,.14-.54,.22-.83,.23-.19,.01-.37,.02-.56,.01,0,0-.57-.09-.57-.09-1.42-.37-2.74-1.07-3.84-2.05-.23-.2-.44-.41-.65-.63-.89-.89-1.56-1.84-1.97-2.74-.21-.44-.32-.92-.33-1.41,0-.61,.19-1.2,.56-1.68,.07-.09,.14-.19,.26-.3,.13-.12,.21-.18,.29-.23,.12-.06,.24-.09,.37-.1h0Z"/></svg>