<svg xmlns="http://www.w3.org/2000/svg" version="1.1" xmlns:xlink="http://www.w3.org/1999/xlink" xmlns:svgjs="http://svgjs.dev/svgjs" width="1000" height="1000"><g clip-path="url(#SvgjsClipPath1035)"><rect width="1000" height="1000" fill="#ffffff"></rect><g transform="matrix(1.0406910188365075,0,0,1.0406910188365075,275.05463627848894,150)"><svg xmlns="http://www.w3.org/2000/svg" version="1.1" xmlns:xlink="http://www.w3.org/1999/xlink" xmlns:svgjs="http://svgjs.dev/svgjs" width="432.3" height="672.63"><svg id="a" xmlns="http://www.w3.org/2000/svg" viewBox="0 0 432.3 672.63"><defs><style>.b{fill:#008e38;}.b,.c,.d,.e{stroke-width:0px;}.c{fill:#2b2a29;}.d{fill:#bb3939;}.e{fill:#56af3a;}</style><clipPath id="SvgjsClipPath1035"><rect width="1000" height="1000" x="0" y="0" rx="350" ry="350"></rect></clipPath></defs><path class="c" d="M132.38,0C96.64,0,64.92,13.4,39.27,40.14,13.21,65.94,0,98.05,0,134.59v436.87h100.15V134.59c0-9.75,3.13-17.35,9.71-24.03,6.62-6.69,13.69-9.39,23.36-9.39h198.96v-.73h100.13V0H132.38Z"></path><path class="b" d="M332.17,101.18v217.73h-100.29V101.18h-28.67v217.73h-103.06v28.97h103.06v223.58h-103.06v101.17h199.81c35.67,0,67.47-13.39,93.06-40.13,26.05-25.83,39.28-57.95,39.28-94.56V101.18h-100.13ZM231.88,347.88h100.29v190.07c0,9.85-3.13,17.36-9.72,24.09-6.62,6.73-13.7,9.42-23.38,9.42h-67.19v-223.58h0Z"></path><polygon class="d" points="99.53 571.46 0 571.46 0 672.63 100.15 672.63 100.15 571.46 99.53 571.46"></polygon><polygon class="e" points="332.17 101.18 332.75 101.18 432.3 101.18 432.3 100.44 332.17 100.44 332.17 101.18"></polygon></svg></svg></g></g></svg>