<?xml version="1.0" encoding="UTF-8"?><svg id="Layer_1" xmlns="http://www.w3.org/2000/svg" viewBox="0 0 51.96 11.67"><defs><style>.cls-1{fill:#fff;}.cls-1,.cls-2{fill-rule:evenodd;}.cls-2{fill:#f15a22;}</style></defs><polygon class="cls-2" points="48.74 11.67 37.07 11.67 37.07 0 48.74 0 48.74 11.67 48.74 11.67"/><path class="cls-1" d="M43.74,4.33c-.09-.49-.5-.62-.94-.62-.51,0-.74,.15-.74,.41,0,1.07,4.09,.41,4.09,3,0,1.66-1.37,2.46-3.33,2.46s-3.1-1.1-3.15-2.39h2.23c0,.42,.58,.74,1.05,.74,.58,0,.96-.19,.96-.53,0-1.08-4.09-.34-4.09-3.06,0-1.52,1.3-2.28,3.08-2.28,1.97,0,2.87,1.01,3.04,2.26h-2.21Z"/><polygon class="cls-2" points="11.68 11.67 0 11.67 0 0 11.68 0 11.68 11.67 11.68 11.67"/><path class="cls-1" d="M6.67,4.33c-.09-.49-.49-.62-.94-.62-.51,0-.74,.15-.74,.41,0,1.07,4.09,.41,4.09,3,0,1.66-1.37,2.46-3.33,2.46s-3.1-1.1-3.15-2.39h2.23c0,.42,.58,.74,1.05,.74,.58,0,.96-.19,.96-.53,0-1.08-4.08-.34-4.08-3.06,0-1.52,1.3-2.28,3.08-2.28,1.97,0,2.88,1.01,3.04,2.26h-2.21Z"/><polygon class="cls-2" points="24.03 11.67 12.36 11.67 12.36 0 24.03 0 24.03 11.67 24.03 11.67"/><polygon class="cls-1" points="19.43 9.58 16.97 9.58 16.97 3.82 14.75 3.82 14.75 2.06 21.64 2.06 21.64 3.82 19.43 3.82 19.43 9.58 19.43 9.58"/><polygon class="cls-2" points="49.93 1.31 49.93 .16 49.5 .16 49.5 0 50.54 0 50.54 .16 50.1 .16 50.1 1.31 49.93 1.31 49.93 1.31"/><path class="cls-2" d="M50.71,1.31V0h.26l.31,.93c.03,.09,.05,.15,.06,.19,.01-.05,.04-.12,.07-.21l.32-.91h.23V1.31h-.17V.21l-.38,1.1h-.16l-.38-1.12V1.31h-.17Z"/><polygon class="cls-2" points="36.39 11.67 24.71 11.67 24.71 0 36.39 0 36.39 11.67 36.39 11.67"/><path class="cls-1" d="M31.59,9.58h-2.07V4.55h2.07v5.03h0Zm0-7.51v1.71h-2.07v-1.71h2.07Z"/></svg>