<?xml version="1.0" standalone="no"?>
<!DOCTYPE svg PUBLIC "-//W3C//DTD SVG 20010904//EN"
 "http://www.w3.org/TR/2001/REC-SVG-20010904/DTD/svg10.dtd">
<svg version="1.0" xmlns="http://www.w3.org/2000/svg"
 width="970.000000pt" height="970.000000pt" viewBox="0 0 970.000000 970.000000"
 preserveAspectRatio="xMidYMid meet">
<metadata>
Created by potrace 1.14, written by Peter Selinger 2001-2017
</metadata>
<g transform="translate(0.000000,970.000000) scale(0.100000,-0.100000)"
fill="#000000" stroke="none">
<path d="M6039 8976 c-2 -2 -29 -6 -59 -10 -63 -7 -208 -34 -230 -43 -8 -3
-22 -7 -30 -9 -71 -15 -312 -110 -318 -126 -2 -4 -7 -6 -11 -4 -4 3 -45 -17
-91 -44 -46 -28 -86 -50 -90 -50 -4 0 -15 -9 -25 -20 -10 -11 -22 -20 -27 -20
-9 0 -23 -11 -59 -42 -10 -10 -19 -15 -19 -10 0 4 -4 3 -8 -3 -4 -5 -36 -34
-72 -64 -76 -64 -242 -233 -285 -291 -16 -22 -35 -46 -40 -53 -21 -25 -105
-148 -105 -154 0 -4 -6 -14 -14 -22 -7 -9 -24 -36 -37 -61 -13 -25 -26 -47
-29 -50 -7 -7 -32 -64 -30 -69 1 -2 -2 -7 -8 -10 -13 -9 -126 -280 -137 -331
-1 -3 -7 -24 -14 -47 l-12 -43 -527 -1 c-506 -1 -575 -2 -652 -14 -377 -54
-721 -247 -965 -540 -22 -27 -45 -53 -50 -59 -6 -6 -26 -33 -45 -61 -19 -27
-38 -54 -43 -60 -35 -47 -120 -195 -112 -195 3 0 -5 -17 -18 -37 -39 -63 -134
-335 -141 -403 -1 -9 -5 -20 -8 -25 -3 -6 -9 -32 -13 -60 -4 -27 -9 -61 -11
-75 -3 -14 -7 -47 -10 -75 -9 -89 -17 -111 -35 -99 -16 9 -109 11 -109 1 0 -4
-8 -4 -17 2 -10 5 -26 5 -41 0 -13 -5 -21 -6 -19 -1 6 8 -187 6 -209 -2 -7 -3
-16 -1 -19 5 -4 5 -11 7 -16 3 -5 -3 -33 -7 -62 -9 -65 -4 -150 -16 -160 -22
-4 -2 -20 -7 -35 -9 -99 -18 -276 -100 -392 -182 -62 -43 -198 -174 -267 -255
-129 -153 -229 -368 -285 -612 l-22 -100 -3 -1898 -4 -1897 3953 3 c2174 2
3964 6 3978 9 14 4 43 9 65 13 22 3 49 8 60 10 31 6 178 45 195 52 8 3 17 7
20 8 30 7 88 30 98 38 6 5 12 7 12 4 0 -5 114 46 140 63 8 6 27 15 43 21 15 6
27 15 27 20 0 5 6 9 13 9 17 0 173 106 257 175 103 85 206 190 320 325 8 10
24 29 35 42 10 12 48 66 82 118 35 52 67 100 71 105 9 12 52 96 94 180 16 33
36 72 44 87 8 14 14 35 14 46 0 11 7 25 15 32 8 7 15 19 15 26 0 8 9 40 21 72
25 70 23 62 58 207 28 111 37 157 47 242 3 18 7 50 11 70 4 21 8 1443 10 3161
l3 3122 -1828 0 c-1006 0 -1831 -2 -1833 -4z m3061 -751 c1 -96 1 -183 1 -192
0 -10 0 -119 0 -243 0 -124 0 -232 0 -240 0 -8 0 -116 0 -240 0 -124 0 -232 0
-240 0 -8 0 -116 0 -240 0 -124 0 -232 0 -240 0 -8 0 -116 0 -240 0 -124 1
-232 1 -240 0 -8 0 -440 0 -960 0 -520 -1 -952 -1 -960 0 -8 0 -116 0 -240 0
-124 0 -232 0 -240 0 -8 0 -116 0 -240 1 -124 1 -234 0 -245 0 -11 -3 -121 -5
-245 -5 -242 -7 -264 -33 -400 -9 -45 -10 -49 -13 -52 -1 -2 -3 -10 -5 -18 -7
-37 -45 -168 -56 -195 -13 -32 -16 -41 -21 -62 -1 -9 -117 -236 -133 -262
-142 -230 -390 -454 -612 -551 -26 -12 -57 -25 -68 -30 -27 -12 -145 -51 -170
-56 -11 -2 -43 -8 -70 -14 -28 -6 -79 -12 -113 -13 -34 -1 -62 -6 -62 -10 0
-5 -5 -5 -12 -1 -6 4 -38 6 -72 5 -34 -1 -68 -2 -76 -2 -8 1 -44 1 -80 0 -36
0 -72 0 -80 0 -8 1 -44 1 -80 0 -36 0 -72 0 -80 0 -8 1 -44 1 -80 0 -36 0 -69
0 -75 0 -5 0 -63 1 -128 1 -66 1 -120 0 -122 -2 -2 -2 -56 -1 -120 2 -64 3
-118 3 -120 0 -2 -3 -56 -3 -120 0 -64 3 -118 3 -120 0 -2 -3 -56 -3 -120 0
-64 3 -118 3 -120 0 -2 -3 -55 -3 -120 0 -64 3 -119 3 -123 0 -4 -3 -45 -3
-92 0 l-85 5 23 23 c12 12 22 27 22 32 0 6 5 10 10 10 6 0 10 7 10 15 0 8 3
15 8 15 4 0 20 21 37 48 16 26 32 49 36 52 15 11 159 302 159 321 0 8 6 23 13
34 8 11 24 56 36 100 12 44 25 87 28 95 3 8 7 22 8 30 1 8 5 26 8 40 31 138
53 330 47 415 -1 17 -2 143 -1 280 0 138 0 257 0 265 -1 8 -1 60 0 115 0 55 0
109 0 120 0 11 0 178 0 370 0 193 0 355 -1 360 0 6 0 55 1 110 0 55 0 109 0
120 0 11 0 178 0 370 0 193 0 355 -1 360 0 6 0 55 1 110 0 55 0 109 0 120 0
11 0 250 0 530 0 281 0 515 -1 520 0 6 0 55 1 110 0 55 0 109 0 120 0 11 0
196 1 410 0 215 0 405 0 423 l0 32 -620 0 c-350 0 -620 4 -620 9 0 8 43 110
60 142 4 8 20 40 36 70 33 65 136 220 179 269 72 83 195 201 260 249 39 28 75
55 80 60 6 4 40 23 75 42 36 19 67 37 70 40 3 3 23 12 45 19 22 7 45 16 50 20
14 12 192 58 244 65 25 3 47 7 49 10 3 2 686 5 1518 5 l1513 0 1 -175z m-5611
-1408 c56 -1 101 1 101 5 0 4 13 3 29 -2 15 -4 34 -4 41 0 7 4 25 4 40 0 15
-4 33 -4 41 0 7 5 20 5 28 1 8 -5 28 -5 44 0 16 5 34 6 39 3 7 -5 84 -6 138
-3 8 1 29 1 45 0 17 -1 39 -1 50 -1 11 0 41 0 68 -1 l47 -1 1 -57 c1 -31 1
-60 0 -65 -2 -6 -2 -105 -2 -220 0 -116 0 -380 0 -586 0 -348 2 -895 2 -930 0
-15 0 -1312 0 -1340 0 -23 -1 -533 -2 -830 0 -146 0 -377 1 -515 1 -137 1
-254 1 -260 -2 -257 -2 -563 -1 -570 1 -6 2 -36 1 -67 l-1 -56 -70 0 c-39 0
-72 -1 -74 -3 -3 -2 -57 -2 -121 1 -64 3 -118 3 -120 0 -2 -3 -56 -3 -120 0
-64 3 -118 3 -120 0 -2 -3 -56 -3 -120 0 -64 3 -119 3 -121 1 -4 -4 -167 -1
-172 3 -1 2 20 45 48 96 27 51 50 95 50 98 0 3 11 33 24 66 14 34 27 72 30 86
3 14 12 50 20 80 8 30 17 71 20 90 3 19 9 46 13 60 4 14 9 874 10 1912 l4
1887 -40 -1 c-21 0 -44 3 -50 6 -6 4 -11 2 -11 -4 0 -7 -6 -8 -19 -1 -10 6
-21 8 -23 5 -8 -7 -194 -7 -207 0 -6 4 -11 2 -11 -4 0 -7 -6 -8 -18 -1 -10 5
-24 6 -32 1 -8 -5 -21 -5 -31 0 -9 5 -19 7 -21 4 -8 -7 -194 -7 -207 0 -6 4
-11 2 -11 -4 0 -7 -6 -8 -18 -1 -10 6 -24 6 -32 1 -8 -5 -18 -6 -23 -3 -14 9
-117 9 -117 0 0 -4 -8 -4 -17 2 -10 5 -26 5 -41 0 -15 -6 -21 -5 -17 1 4 7 -2
7 -18 1 -14 -6 -27 -7 -30 -4 -9 8 -67 10 -67 1 0 -8 -29 0 -47 15 -7 5 -10
14 -6 21 4 6 8 19 9 29 1 9 2 18 3 20 3 3 12 66 14 95 1 12 5 22 9 22 5 0 7 3
7 8 -1 4 -1 9 1 12 1 3 4 16 6 29 8 46 54 163 98 250 87 176 199 312 339 418
64 48 122 83 134 82 3 0 9 3 12 8 11 15 68 43 75 36 3 -3 6 0 6 7 0 7 3 11 6
7 4 -3 18 0 33 7 23 12 66 24 151 42 14 3 61 7 105 10 43 3 81 7 83 9 2 2 10
1 17 -1 7 -3 59 -6 114 -7z m1391 1 c32 0 62 2 67 5 5 3 15 2 22 -2 7 -5 28
-5 47 -1 19 4 34 5 34 1 0 -7 123 -6 136 1 5 3 18 2 29 -2 11 -4 32 -4 48 1
15 4 27 5 27 1 0 -6 120 -6 217 -1 43 3 60 -13 56 -53 -5 -44 -5 -43 -4 -128
0 -41 1 -84 1 -95 0 -11 0 -49 1 -83 0 -35 -2 -66 -5 -69 -3 -3 -1 -13 4 -22
5 -10 5 -23 1 -29 -4 -7 -5 -33 -1 -57 4 -25 4 -45 0 -45 -4 0 -4 -20 0 -45 4
-25 3 -48 -2 -51 -5 -3 -5 -11 1 -18 6 -7 6 -17 1 -26 -5 -8 -7 -17 -5 -21 3
-3 5 -40 5 -80 0 -93 0 -101 1 -177 0 -35 -2 -66 -5 -69 -3 -3 -1 -13 4 -22 5
-10 5 -23 1 -29 -4 -7 -5 -33 -1 -57 4 -25 4 -45 0 -45 -4 0 -4 -20 0 -45 4
-25 3 -48 -2 -51 -5 -3 -5 -11 1 -18 6 -7 6 -17 1 -26 -5 -8 -7 -17 -5 -21 3
-3 5 -40 5 -80 0 -93 0 -101 1 -177 0 -35 -2 -66 -5 -69 -3 -3 -1 -13 4 -22 5
-10 5 -23 1 -29 -4 -7 -5 -33 -1 -57 4 -25 4 -45 0 -45 -4 0 -4 -20 0 -45 4
-25 3 -48 -2 -51 -5 -3 -5 -11 1 -18 6 -7 6 -17 1 -26 -5 -8 -7 -17 -5 -21 3
-3 5 -40 5 -80 0 -90 0 -105 1 -121 1 -7 0 -26 -1 -43 -1 -16 0 -39 3 -50 2
-11 1 -34 -3 -51 -4 -18 -4 -38 1 -45 4 -7 3 -19 -2 -25 -7 -8 -6 -14 1 -19 6
-3 8 -11 4 -16 -6 -11 -7 -130 -1 -164 2 -11 1 -34 -3 -51 -4 -18 -4 -38 1
-45 4 -7 3 -19 -2 -25 -7 -8 -6 -14 1 -19 6 -4 7 -12 2 -21 -5 -9 -6 -36 -2
-60 4 -25 4 -47 0 -49 -4 -2 -4 -27 0 -55 4 -27 3 -50 -2 -50 -4 0 -3 -11 2
-25 5 -14 5 -27 0 -30 -5 -3 -5 -18 -1 -33 4 -15 5 -38 1 -52 -3 -13 -3 -45 0
-70 3 -25 3 -57 -1 -70 -3 -14 -2 -32 2 -41 4 -8 4 -21 0 -27 -4 -7 -5 -33 -1
-57 4 -25 4 -45 0 -45 -4 0 -4 -20 0 -45 4 -25 3 -48 -2 -51 -5 -3 -5 -11 1
-18 6 -7 6 -17 1 -26 -5 -8 -7 -17 -5 -21 4 -5 6 -93 4 -169 0 -8 2 -27 4 -43
2 -15 1 -29 -3 -32 -3 -2 -4 -27 0 -55 4 -27 3 -50 -2 -50 -4 0 -3 -11 2 -25
5 -14 5 -27 0 -30 -5 -3 -5 -18 0 -34 4 -16 6 -32 3 -35 -5 -5 -7 -127 -2
-152 1 -5 0 -11 -1 -14 -1 -3 -3 -39 -5 -80 -3 -89 -13 -163 -26 -206 -5 -18
-9 -36 -7 -40 7 -23 -120 -346 -143 -364 -3 -3 -12 -16 -19 -30 -34 -66 -268
-330 -292 -330 -4 0 -35 -19 -70 -43 -52 -36 -175 -97 -194 -97 -3 0 -4 6 -1
13 2 6 0 22 -4 34 -5 13 -4 25 1 28 6 3 6 15 0 30 -6 15 -6 27 0 30 6 3 6 15
0 30 -6 15 -6 27 0 30 6 3 6 15 0 30 -6 15 -6 27 1 30 5 4 7 11 4 16 -9 13
-11 99 -4 99 4 0 3 16 -1 35 -4 19 -5 35 -1 35 3 0 6 18 6 40 0 22 -3 40 -6
40 -4 0 -3 16 1 35 5 21 4 35 -2 35 -5 0 -6 5 -2 11 9 14 9 103 0 117 -3 6 -2
13 3 17 7 3 7 15 1 30 -6 15 -6 27 1 30 5 4 7 11 3 16 -8 14 -8 215 1 228 3 6
2 11 -4 11 -6 0 -6 11 -1 30 5 17 5 30 0 30 -5 0 -5 13 0 30 5 17 5 32 0 35
-6 3 -5 16 0 29 5 13 6 26 3 30 -8 8 -9 96 -2 96 4 0 3 16 -1 35 -4 19 -5 35
-1 35 3 0 6 18 6 40 0 22 -3 40 -6 40 -4 0 -3 16 1 35 5 21 4 35 -2 35 -5 0
-6 5 -2 11 9 14 9 103 0 117 -3 6 -2 13 3 17 7 3 7 15 1 30 -6 15 -6 27 0 30
6 3 6 15 0 30 -6 15 -6 27 0 30 6 3 6 15 0 30 -6 15 -6 27 0 30 6 3 6 15 0 30
-6 15 -6 27 0 30 6 3 6 15 0 30 -6 15 -6 27 0 30 6 3 6 15 0 30 -6 15 -6 27 0
30 6 3 6 15 0 30 -6 15 -6 27 0 30 6 3 6 15 0 30 -6 15 -6 27 1 30 5 4 7 11 4
16 -9 13 -11 99 -4 99 4 0 3 16 -1 35 -4 19 -5 35 -1 35 3 0 6 18 6 40 0 22
-3 40 -6 40 -4 0 -3 16 1 35 5 21 4 35 -2 35 -5 0 -6 5 -2 11 9 14 9 103 0
117 -3 6 -2 13 3 17 7 3 7 15 1 30 -6 15 -6 27 1 30 5 4 7 11 3 16 -8 14 -8
215 1 228 3 6 2 11 -4 11 -6 0 -6 11 -1 30 5 17 5 30 0 30 -5 0 -5 13 0 30 5
17 5 32 0 35 -5 3 -5 16 0 30 5 13 6 26 2 29 -5 3 -5 30 -2 61 3 31 3 58 -2
61 -4 3 -3 15 2 28 5 13 6 27 3 30 -9 9 -9 76 0 76 5 0 5 5 2 11 -9 13 -10
297 -2 306 4 3 2 14 -3 24 -7 11 -7 20 0 24 5 3 6 15 1 27 -4 11 -4 40 -1 65
4 24 3 46 -1 49 -5 2 -4 15 1 28 5 13 6 27 3 30 -9 9 -9 76 0 76 5 0 5 5 2 11
-9 13 -10 297 -2 306 4 3 2 14 -3 24 -7 11 -7 20 0 24 5 3 6 15 1 27 -4 11 -4
40 -1 65 4 24 3 46 -1 49 -5 2 -4 15 1 28 5 13 6 27 3 30 -9 9 -9 76 0 76 5 0
5 5 2 11 -9 13 -10 297 -2 306 4 3 2 14 -3 24 -7 11 -7 20 0 24 5 3 6 15 1 27
-4 11 -4 40 -1 65 4 24 3 46 -1 49 -5 2 -4 15 1 28 5 13 6 27 3 30 -8 8 -9 76
-1 76 4 0 3 14 -2 30 -5 17 -5 30 -1 30 4 0 6 16 5 35 -2 23 1 33 7 29 6 -3
37 -6 69 -6z m-3464 -1697 c49 0 98 -1 109 -1 11 0 50 0 87 1 57 0 67 -3 67
-18 3 -93 2 -115 -3 -120 -3 -3 -1 -14 4 -24 6 -10 6 -20 2 -23 -5 -3 -7 -20
-5 -38 7 -69 8 -118 2 -118 -7 0 -3 -55 5 -69 4 -5 2 -12 -4 -16 -6 -4 -7 -12
-1 -24 5 -9 6 -23 1 -31 -4 -7 -5 -23 0 -34 4 -11 4 -33 -1 -48 -4 -16 -3 -30
2 -33 5 -4 5 -13 0 -24 -5 -9 -6 -23 -2 -29 4 -7 5 -33 1 -58 -4 -24 -3 -47 2
-50 4 -3 4 -13 -1 -23 -5 -9 -6 -23 -2 -30 5 -7 5 -29 1 -50 -4 -20 -3 -46 0
-57 4 -10 4 -26 -1 -35 -4 -8 -4 -21 0 -28 5 -7 5 -28 1 -47 -4 -19 -4 -34 0
-34 5 0 5 -13 0 -28 -4 -16 -4 -36 1 -45 5 -9 5 -18 0 -21 -4 -3 -7 -18 -4
-33 7 -50 8 -113 2 -113 -7 0 -3 -55 5 -69 4 -5 2 -12 -4 -16 -6 -4 -7 -12 -1
-24 5 -9 6 -23 1 -31 -4 -7 -5 -23 0 -34 4 -11 4 -33 -1 -48 -4 -16 -3 -30 2
-33 5 -4 5 -13 0 -24 -5 -9 -6 -23 -2 -29 4 -7 5 -33 1 -58 -4 -24 -3 -47 2
-50 4 -3 4 -13 -1 -23 -5 -9 -6 -23 -2 -29 4 -7 5 -33 1 -58 -4 -24 -3 -47 2
-50 4 -3 4 -13 -1 -23 -5 -9 -6 -23 -2 -29 4 -7 5 -33 1 -58 -4 -24 -3 -47 2
-50 4 -3 4 -13 -1 -23 -5 -9 -6 -23 -2 -30 5 -7 5 -29 1 -50 -4 -20 -3 -46 0
-57 4 -10 4 -26 -1 -35 -4 -8 -4 -21 0 -28 5 -7 5 -28 1 -47 -4 -19 -4 -34 0
-34 5 0 5 -13 0 -28 -4 -16 -4 -36 1 -45 5 -9 5 -18 0 -21 -4 -3 -7 -18 -4
-33 7 -50 8 -113 2 -113 -7 0 -3 -55 5 -69 4 -5 2 -12 -4 -16 -6 -4 -7 -12 -1
-24 5 -9 6 -23 1 -31 -4 -7 -5 -23 0 -34 4 -11 4 -33 -1 -48 -4 -16 -3 -30 2
-33 5 -4 5 -13 0 -24 -5 -9 -6 -23 -2 -29 4 -7 5 -33 1 -58 -4 -24 -3 -47 2
-50 4 -3 4 -13 -1 -23 -5 -9 -6 -23 -2 -30 5 -7 5 -29 1 -50 -4 -20 -3 -46 0
-57 4 -10 4 -26 -1 -35 -4 -8 -4 -21 0 -28 5 -7 5 -28 1 -47 -4 -19 -4 -34 0
-34 5 0 5 -13 0 -28 -4 -16 -4 -36 1 -45 5 -9 5 -18 0 -21 -4 -3 -7 -18 -4
-33 7 -50 8 -113 2 -113 -7 0 -3 -55 5 -69 4 -5 2 -12 -4 -16 -6 -4 -7 -12 -1
-24 5 -9 6 -23 1 -31 -4 -7 -4 -24 0 -36 6 -14 5 -26 0 -29 -6 -3 -5 -16 0
-31 l10 -25 -95 2 c-53 1 -97 0 -99 -2 -3 -2 -57 -2 -121 1 -64 3 -118 3 -120
0 -2 -3 -56 -3 -120 0 -64 3 -118 3 -120 0 -2 -3 -56 -3 -120 0 -64 3 -118 3
-120 0 -2 -3 -46 -4 -99 -2 l-96 3 0 1542 c1 882 5 1559 10 1582 5 22 11 54
14 70 16 93 115 306 153 328 7 4 13 12 13 18 0 5 17 25 38 45 142 137 304 214
444 211 27 0 51 3 54 6 4 4 10 5 14 2 4 -2 47 -4 96 -4z m1090 1 c3 5 9 6 13
4 4 -3 67 -6 140 -7 105 -1 134 -4 138 -15 5 -14 5 -26 2 -130 -1 -29 1 -56 5
-62 3 -6 2 -13 -3 -17 -6 -3 -7 -16 -3 -28 4 -12 6 -38 5 -57 -6 -70 -5 -129
1 -139 4 -5 2 -12 -3 -16 -6 -3 -7 -16 -3 -28 4 -12 6 -37 5 -54 -6 -72 -5
-131 1 -141 3 -6 2 -13 -4 -17 -6 -4 -7 -11 -4 -17 8 -13 9 -96 2 -104 -4 -3
-2 -18 2 -34 4 -16 6 -31 3 -34 -8 -8 -7 -101 1 -114 3 -6 2 -13 -3 -17 -6 -3
-7 -16 -3 -28 4 -12 6 -37 4 -54 -4 -51 -4 -56 -3 -83 1 -14 1 -48 0 -76 -1
-29 1 -56 5 -62 3 -6 2 -13 -4 -17 -6 -4 -7 -11 -4 -17 8 -13 9 -96 2 -104 -4
-3 -2 -18 2 -34 4 -16 6 -31 3 -34 -8 -8 -7 -101 1 -114 3 -6 2 -13 -3 -17 -6
-3 -7 -16 -3 -28 4 -12 6 -37 4 -54 -4 -51 -4 -56 -3 -83 1 -14 1 -48 0 -76
-1 -29 1 -56 5 -62 3 -6 2 -13 -4 -17 -6 -4 -7 -11 -4 -17 8 -13 9 -96 2 -104
-4 -3 -2 -18 2 -34 4 -16 6 -31 3 -34 -8 -8 -7 -101 1 -114 3 -6 2 -13 -3 -17
-6 -3 -7 -16 -3 -28 4 -12 6 -37 4 -54 -4 -51 -4 -56 -3 -83 1 -14 1 -48 0
-76 -1 -29 1 -56 5 -62 3 -6 2 -13 -4 -17 -6 -4 -7 -11 -4 -17 8 -13 9 -96 2
-104 -4 -3 -2 -18 2 -34 4 -16 6 -31 3 -34 -8 -8 -7 -101 1 -114 3 -6 2 -13
-3 -17 -7 -3 -7 -15 -1 -29 5 -13 7 -26 5 -28 -3 -2 -7 -35 -10 -73 -3 -37
-13 -96 -21 -131 -17 -77 -74 -224 -86 -224 -4 0 -8 -7 -8 -15 0 -12 -44 -71
-113 -152 -76 -88 -302 -215 -304 -171 0 7 -2 33 -3 58 -1 41 -2 806 -1 840 0
8 1 29 0 45 0 31 0 47 2 68 1 6 1 59 0 117 0 58 -1 130 0 160 0 30 0 102 0
160 0 58 0 112 0 120 0 8 0 26 0 40 -1 14 -1 32 0 40 1 8 1 62 0 120 0 58 -1
130 0 160 0 30 0 102 0 160 0 58 0 112 0 120 0 8 0 26 0 40 -1 14 -1 32 0 40
1 8 1 62 0 120 0 58 -1 130 0 160 0 30 0 102 0 160 0 58 0 112 0 120 0 8 0 26
0 40 -1 14 -1 32 0 40 1 8 1 62 0 120 0 58 0 112 0 120 1 11 1 320 0 582 0 15
9 17 50 16 27 0 52 1 54 3 2 3 34 2 70 -1 37 -3 69 -2 71 2z"/>
</g>
</svg>
