<?xml version="1.0" encoding="UTF-8"?><svg id="a" xmlns="http://www.w3.org/2000/svg" viewBox="0 0 16 16"><defs><style>.c{stroke-width:0px;}</style></defs><g id="b"><path class="c" d="M15.95,13.17l-.65-2.04c-.11-.35-.49-.54-.84-.43-.35.11-.54.48-.43.84l.29.91-1.66-1.01v-3.13c0-.84-.45-1.61-1.18-2.03l-2.82-1.61v-2.02l.87.83c.13.12.3.18.46.18.18,0,.35-.07.48-.21.25-.27.24-.69-.02-.95l-1.56-1.48c-.49-.48-1.28-.48-1.75-.02l-1.61,1.5c-.27.25-.29.67-.04.94.25.27.68.29.94.04l.88-.82v2l-2.82,1.61c-.72.41-1.18,1.19-1.18,2.03v3.13l-1.65,1.01.29-.91c.11-.35-.08-.73-.43-.84-.35-.11-.73.08-.84.43L.04,13.21c-.16.67.25,1.35.87,1.5l1.89.59c.07.02.13.03.2.03.29,0,.55-.18.64-.46.11-.35-.09-.73-.44-.84l-1.03-.32,1.76-1.07,2.91,1.67c.36.2.76.3,1.16.3s.8-.1,1.16-.3l2.92-1.67,1.75,1.07-1.03.32c-.35.11-.55.48-.44.84.09.29.35.46.64.46.07,0,.13,0,.2-.03l1.85-.58c.67-.16,1.08-.84.91-1.55h0ZM8,8.75l-2.56-1.46,2.56-1.46,2.56,1.46-2.56,1.46ZM4.67,11.52v-3.14l2.66,1.52v3.14l-2.66-1.52ZM8.67,13.05v-3.14l2.66-1.52v3.14l-2.66,1.52Z"/></g></svg>