<?xml version="1.0" encoding="UTF-8"?><svg xmlns="http://www.w3.org/2000/svg" viewBox="0 0 16 16"><path d="M4.67,0h-2C1.2,0,0,1.2,0,2.67v2c0,1.47,1.2,2.66,2.67,2.66h2c1.47,0,2.66-1.19,2.66-2.66v-2c0-1.47-1.19-2.67-2.66-2.67ZM6,4.67c0,.73-.6,1.33-1.33,1.33h-2c-.74,0-1.34-.6-1.34-1.33v-2c0-.74.6-1.34,1.34-1.34h2c.73,0,1.33.6,1.33,1.34v2Z"/><path d="M13.33,0h-2c-1.47,0-2.66,1.2-2.66,2.67v2c0,1.47,1.19,2.66,2.66,2.66h2c1.47,0,2.67-1.19,2.67-2.66v-2c0-1.47-1.2-2.67-2.67-2.67ZM14.67,4.67c0,.73-.6,1.33-1.34,1.33h-2c-.73,0-1.33-.6-1.33-1.33v-2c0-.74.6-1.34,1.33-1.34h2c.74,0,1.34.6,1.34,1.34v2Z"/><path d="M4.67,8.67h-2c-1.47,0-2.67,1.19-2.67,2.66v2c0,1.47,1.2,2.67,2.67,2.67h2c1.47,0,2.66-1.2,2.66-2.67v-2c0-1.47-1.19-2.66-2.66-2.66ZM6,13.33c0,.74-.6,1.34-1.33,1.34h-2c-.74,0-1.34-.6-1.34-1.34v-2c0-.73.6-1.33,1.34-1.33h2c.73,0,1.33.6,1.33,1.33v2Z"/><path d="M13.33,8.67h-2c-1.47,0-2.66,1.19-2.66,2.66v2c0,1.47,1.19,2.67,2.66,2.67h2c1.47,0,2.67-1.2,2.67-2.67v-2c0-1.47-1.2-2.66-2.67-2.66ZM14.67,13.33c0,.74-.6,1.34-1.34,1.34h-2c-.73,0-1.33-.6-1.33-1.34v-2c0-.73.6-1.33,1.33-1.33h2c.74,0,1.34.6,1.34,1.33v2Z"/></svg>