<?xml version="1.0" encoding="UTF-8"?><svg id="a" xmlns="http://www.w3.org/2000/svg" viewBox="0 0 16 16"><defs><style>.c{stroke-width:0px;}</style></defs><g id="b"><path class="c" d="M2.67,0h2c1.47,0,2.66,1.2,2.66,2.67v2c0,1.47-1.19,2.66-2.66,2.66h-2c-1.47,0-2.67-1.19-2.67-2.66v-2C0,1.2,1.2,0,2.67,0Z"/><path class="c" d="M11.33,0h2c1.47,0,2.67,1.2,2.67,2.67v2c0,1.47-1.2,2.66-2.67,2.66h-2c-1.47,0-2.66-1.19-2.66-2.66v-2c0-1.47,1.19-2.67,2.66-2.67Z"/><path class="c" d="M2.67,8.67h2c1.47,0,2.66,1.19,2.66,2.66v2c0,1.47-1.19,2.67-2.66,2.67h-2c-1.47,0-2.67-1.2-2.67-2.67v-2c0-1.47,1.2-2.66,2.67-2.66Z"/><path class="c" d="M11.33,8.67h2c1.47,0,2.67,1.19,2.67,2.66v2c0,1.47-1.2,2.67-2.67,2.67h-2c-1.47,0-2.66-1.2-2.66-2.67v-2c0-1.47,1.19-2.66,2.66-2.66Z"/></g></svg>