<?xml version="1.0" encoding="UTF-8"?><svg xmlns="http://www.w3.org/2000/svg" viewBox="0 0 16 16"><path d="M12.67,2.67h-.73C11.61,1.12,10.25,0,8.67,0h-1.34c-1.58,0-2.95,1.12-3.27,2.67h-.73C1.49,2.67,0,4.16,0,6v6.67c0,1.84,1.49,3.33,3.33,3.33h9.34c1.84,0,3.33-1.49,3.33-3.33v-6.67c0-1.84-1.49-3.33-3.33-3.33ZM7.33,1.33h1.34c.84,0,1.59.54,1.88,1.34h-5.09c.28-.8,1.03-1.33,1.88-1.34ZM3.33,4h9.34c1.1,0,2,.89,2,2v2H1.33v-2c0-1.11.9-2,2-2ZM12.67,14.67H3.33c-1.1,0-2-.9-2-2v-3.34h6v.67c0,.37.3.67.67.67s.67-.3.67-.67v-.67h6v3.34c0,1.1-.9,2-2,2Z"/></svg>