<?xml version="1.0" encoding="UTF-8"?><svg xmlns="http://www.w3.org/2000/svg" viewBox="0 0 16 16"><path d="M11.1,6h.42c.08.56.56,1,1.15,1s1.07-.43,1.15-1h.42c.48,0,.94-.21,1.24-.59.3-.38.42-.86.32-1.33l-.35-1.65c-.32-1.52-1.36-2.43-2.78-2.43s-2.45.88-2.79,2.43c-.11.53-.24,1.14-.35,1.65-.1.47.02.96.32,1.33s.76.59,1.24.59ZM11.19,2.71c.29-1.38,1.19-1.38,1.48-1.38s1.19,0,1.48,1.37l.35,1.65c.02.11-.02.18-.05.21-.03.04-.1.1-.21.1h-3.14c-.11,0-.18-.06-.21-.1-.03-.04-.07-.11-.05-.21.11-.51.23-1.12.35-1.65ZM15.39,11.16s-1.62-1.25-1.62-1.25c-.77-.74-2.08-.74-2.86,0l-.97.77c-2.13-.9-3.65-2.42-4.62-4.63l.77-.97c.37-.38.57-.89.57-1.43s-.2-1.04-.57-1.43c0,0-1.23-1.6-1.25-1.62-.39-.39-.91-.6-1.46-.6s-1.07.21-1.42.57l-.77.67c-.77.77-1.19,1.8-1.19,2.92,0,5.09,6.75,11.84,11.84,11.84,1.12,0,2.15-.42,2.95-1.22l.61-.7c.39-.39.61-.91.61-1.46s-.21-1.07-.61-1.46ZM14.42,13.17l-.61.7c-.51.52-1.21.8-1.97.8C7.85,14.67,1.33,8.8,1.33,4.16c0-.76.29-1.46.77-1.95l.77-.67c.14-.14.32-.21.52-.21s.36.07.49.19c0,0,1.23,1.6,1.25,1.62.14.14.21.32.21.52s-.07.38-.21.52c-.02.02-1.09,1.36-1.09,1.36-.15.19-.18.44-.09.66,1.14,2.85,3.12,4.82,5.88,5.87.22.09.47.05.65-.1,0,0,1.35-1.07,1.36-1.09.28-.27.76-.27,1.04,0,.02.02,1.61,1.25,1.61,1.25.12.13.19.3.19.49,0,.2-.07.38-.24.55Z"/></svg>