<?xml version="1.0" encoding="UTF-8"?><svg xmlns="http://www.w3.org/2000/svg" viewBox="0 0 16 16"><path d="M11.33,9.33c0,.37-.3.67-.66.67h-5.34c-.37,0-.66-.3-.66-.67s.3-.66.66-.66h5.34c.37,0,.66.3.66.66ZM8.67,11.33h-3.34c-.37,0-.66.3-.66.67s.3.67.66.67h3.34c.37,0,.66-.3.66-.67s-.3-.67-.66-.67ZM14.67,6.99v5.68c0,1.84-1.5,3.33-3.34,3.33h-6.66c-1.84,0-3.33-1.49-3.34-3.33V3.33C1.34,1.49,2.83,0,4.67,0h3.01c1.24,0,2.43.49,3.3,1.37l2.32,2.32c.88.87,1.37,2.06,1.37,3.3ZM10.04,2.31c-.21-.2-.45-.38-.7-.52v2.88c0,.37.3.66.67.66h2.88c-.14-.25-.32-.49-.52-.7l-2.32-2.32ZM13.33,6.99c0-.11-.02-.21-.03-.32h-3.3c-1.11,0-2-.9-2-2V1.36c-.11,0-.21-.03-.32-.03h-3.01c-1.11,0-2,.9-2,2v9.34c0,1.1.89,2,2,2h6.66c1.11,0,2-.9,2-2v-5.68Z"/></svg>