<?xml version="1.0" encoding="UTF-8"?><svg xmlns="http://www.w3.org/2000/svg" viewBox="0 0 16 16"><path d="M15.33,16H.67c-.37,0-.67-.3-.67-.67s.3-.66.67-.66h14.66c.37,0,.67.3.67.66s-.3.67-.67.67ZM9.85,12.57l4.23-4.5c.58-.58.75-1.41.43-2.16-.32-.75-1.02-1.23-1.84-1.23h-1.38l-.02-2.03c0-1.46-1.19-2.65-2.65-2.65h-1.32c-1.46,0-2.64,1.19-2.64,2.65v2.02h-1.37c-.82,0-1.52.47-1.83,1.23-.32.75-.15,1.59.42,2.15l4.22,4.54c.52.51,1.2.77,1.88.77s1.35-.26,1.87-.77h0ZM5.33,6c.18,0,.35-.07.48-.2.12-.12.19-.29.19-.47v-2.68c0-.73.59-1.32,1.31-1.32h1.32c.73,0,1.31.59,1.31,1.32l.02,2.7c0,.37.3.66.66.66h2.04c.41,0,.57.32.6.41.04.09.15.43-.16.73l-4.22,4.49c-.51.51-1.34.5-1.83,0L2.83,7.11c-.29-.29-.18-.62-.14-.71.04-.09.2-.41.6-.41h2.04Z"/></svg>