<?xml version="1.0" encoding="UTF-8"?><svg id="a" xmlns="http://www.w3.org/2000/svg" viewBox="0 0 16 16"><defs><style>.c{stroke-width:0px;}</style></defs><g id="b"><path class="c" d="M12.67.67H3.33C1.49.67,0,2.16,0,4v8c0,1.84,1.49,3.33,3.33,3.33h9.34c1.84,0,3.33-1.49,3.33-3.33V4c0-1.84-1.49-3.33-3.33-3.33ZM3.33,2h9.34c.82,0,1.55.5,1.85,1.26l-5.11,5.11c-.78.78-2.05.78-2.83,0L1.48,3.26c.3-.76,1.04-1.26,1.85-1.26ZM12.67,14H3.33c-1.1,0-2-.89-2-2v-7l4.31,4.31c1.3,1.3,3.41,1.3,4.71,0l4.31-4.31v7c0,1.11-.9,2-2,2Z"/></g></svg>