<?xml version="1.0" encoding="UTF-8"?><svg id="a" xmlns="http://www.w3.org/2000/svg" viewBox="0 0 16 16"><defs><style>.c{stroke-width:0px;}</style></defs><g id="b"><path class="c" d="M5.34,14h-3.06c-.15,0-.27-.12-.27-.27V2.27c0-.15.12-.27.27-.27h3.06c.55,0,1-.45,1-1s-.45-1-1-1h-3.06C1.02,0,0,1.02,0,2.27v11.45c0,1.25,1.02,2.27,2.27,2.27h3.06c.55,0,1-.45,1-1s-.45-1-1-1Z"/><path class="c" d="M15.12,5.88l-2.59-2.59c-.39-.39-1.02-.39-1.41,0s-.39,1.02,0,1.41l2.27,2.27-9.06.02c-.55,0-1,.45-1,1s.45,1,1,1l9.1-.02-2.31,2.31c-.38.41-.36,1.04.05,1.41.38.36.98.36,1.36,0l2.59-2.59c1.17-1.17,1.17-3.07,0-4.24Z"/></g></svg>