<?xml version="1.0" encoding="UTF-8"?><svg xmlns="http://www.w3.org/2000/svg" viewBox="0 0 16 16"><path d="M8,4c-1.47,0-2.67,1.2-2.67,2.67s1.2,2.66,2.67,2.66,2.67-1.19,2.67-2.66-1.2-2.67-2.67-2.67ZM8,8c-.74,0-1.33-.6-1.33-1.33s.59-1.34,1.33-1.34,1.33.6,1.33,1.34-.59,1.33-1.33,1.33Z"/><path d="M8,16c-1.14,0-2.21-.54-2.88-1.46-2.54-3.51-3.83-6.14-3.83-7.83C1.3,3,4.3,0,8,0s6.7,3,6.7,6.7c0,1.69-1.29,4.32-3.83,7.83-.66.93-1.73,1.47-2.88,1.46ZM8,1.45c-2.9,0-5.25,2.35-5.25,5.25,0,1.34,1.26,3.82,3.55,6.98.39.54,1.02.87,1.7.87s1.3-.32,1.7-.87c2.29-3.16,3.55-5.64,3.55-6.98,0-2.9-2.35-5.25-5.25-5.25Z"/></svg>