<?xml version="1.0" encoding="UTF-8"?><svg xmlns="http://www.w3.org/2000/svg" viewBox="0 0 16 16"><path d="M13.33,0H2.67C1.2,0,0,1.2,0,2.67v8c0,1.47,1.2,2.66,2.67,2.66h1.95l2.5,2.11c.26.23.57.34.89.34s.62-.11.86-.32l2.57-2.12h1.9c1.47,0,2.66-1.2,2.66-2.66V2.67c0-1.47-1.2-2.67-2.66-2.67h0ZM14.67,10.67c0,.73-.6,1.33-1.34,1.33h-2.14c-.15,0-.3.05-.43.15l-2.78,2.28-2.7-2.27c-.12-.1-.27-.16-.43-.16h-2.2c-.73,0-1.33-.6-1.33-1.33V2.67c0-.74.6-1.34,1.33-1.34h10.67c.73,0,1.33.6,1.33,1.34v8h0ZM9,11c0,.55-.45,1-1,1s-1-.45-1-1,.45-1,1-1,1,.45,1,1ZM10.57,4.63c.33,1.27-.29,2.58-1.46,3.12-.16.07-.45.43-.45.78v.13c0,.37-.3.66-.66.66s-.67-.3-.67-.66v-.13c0-.93.63-1.71,1.23-1.99.49-.22.92-.81.73-1.57-.11-.44-.48-.81-.92-.92-.43-.11-.85-.03-1.18.23-.33.26-.52.64-.52,1.06,0,.37-.3.66-.67.66s-.67-.3-.67-.66c0-.83.38-1.6,1.04-2.11.66-.51,1.51-.68,2.33-.47.91.23,1.64.97,1.88,1.88Z"/></svg>