<?xml version="1.0" encoding="UTF-8"?><svg xmlns="http://www.w3.org/2000/svg" viewBox="0 0 16 16"><path d="M14.78,1.21l-.7-.61c-.8-.8-2.11-.8-2.92,0-.02.02-1.25,1.63-1.25,1.63-.76.8-.76,2.06,0,2.85l.77.97c-.97,2.21-2.49,3.73-4.62,4.63l-.97-.78c-.79-.77-2.06-.77-2.85,0,0,0-1.61,1.23-1.63,1.25-.8.8-.8,2.11-.03,2.89l.66.77c.77.77,1.8,1.19,2.92,1.19,5.09,0,11.84-6.75,11.84-11.84,0-1.11-.42-2.16-1.22-2.95h0ZM4.16,14.67c-.76,0-1.46-.28-1.94-.77l-.66-.77c-.27-.27-.29-.72-.03-1.01,0,0,1.59-1.23,1.61-1.25.27-.27.75-.27,1.03,0,.02.02,1.36,1.09,1.36,1.09.18.15.43.19.65.1,2.76-1.05,4.74-3.03,5.88-5.87.09-.22.05-.47-.1-.66,0,0-1.07-1.35-1.09-1.36-.29-.29-.29-.75,0-1.03.02-.02,1.25-1.61,1.25-1.61.29-.26.73-.25,1.04.05l.7.61c.51.51.8,1.21.8,1.97,0,4.64-6.52,10.51-10.51,10.51Z"/></svg>