<?xml version="1.0" encoding="UTF-8"?><svg id="a" xmlns="http://www.w3.org/2000/svg" viewBox="0 0 16 16"><defs><style>.c{stroke-width:0px;}</style></defs><g id="b"><path class="c" d="M12.67,0H3.33C1.49,0,0,1.49,0,3.33v9.34c0,1.84,1.49,3.33,3.33,3.33h9.34c1.84,0,3.33-1.49,3.33-3.33V3.33c0-1.84-1.49-3.33-3.33-3.33ZM4.67,14.67v-.67c0-1.84,1.49-3.33,3.33-3.33s3.33,1.49,3.33,3.33v.67h-6.66ZM14.67,12.67c0,1.1-.9,2-2,2v-.67c0-2.58-2.09-4.67-4.67-4.67s-4.67,2.09-4.67,4.67v.67c-1.1,0-2-.9-2-2V3.33c0-1.1.9-2,2-2h9.34c1.1,0,2,.9,2,2v9.34Z"/><path class="c" d="M8,2.67c-1.47,0-2.67,1.19-2.67,2.66s1.2,2.67,2.67,2.67,2.67-1.2,2.67-2.67-1.2-2.66-2.67-2.66ZM8,6.67c-.74,0-1.33-.6-1.33-1.34s.59-1.33,1.33-1.33,1.33.6,1.33,1.33-.59,1.34-1.33,1.34Z"/></g></svg>