<?xml version="1.0" encoding="UTF-8"?><svg xmlns="http://www.w3.org/2000/svg" viewBox="0 0 15.94 16"><path d="M7.97,1.33c1.79,0,3.5.73,4.75,2h-2.08c-.37,0-.67.3-.67.67s.3.67.67.67h2.76c.68,0,1.24-.55,1.24-1.24V.67C14.64.3,14.34,0,13.97,0s-.67.3-.67.67v1.38C10.02-.9,4.97-.64,2.02,2.64.87,3.93.16,5.55,0,7.27c-.04.37.23.7.61.73.02,0,.04,0,.06,0,.34,0,.62-.25.66-.59C1.64,3.98,4.51,1.34,7.97,1.33Z"/><path d="M15.27,8c-.34,0-.62.25-.66.59-.32,3.66-3.55,6.38-7.21,6.05-1.59-.14-3.07-.84-4.18-1.97h2.08c.37,0,.67-.3.67-.67s-.3-.67-.67-.67h-2.76c-.68,0-1.24.55-1.24,1.24v2.76c0,.37.3.67.67.67s.67-.3.67-.67v-1.38c3.28,2.95,8.33,2.69,11.28-.59,1.16-1.29,1.87-2.91,2.02-4.62.04-.37-.23-.7-.61-.73-.02,0-.04,0-.06,0Z"/></svg>