<?xml version="1.0" encoding="UTF-8"?><svg id="a" xmlns="http://www.w3.org/2000/svg" viewBox="0 0 16 16"><defs><style>.c{stroke-width:0px;}</style></defs><g id="b"><path class="c" d="M8,5.33c-1.47,0-2.67,1.2-2.67,2.67s1.2,2.67,2.67,2.67,2.67-1.2,2.67-2.67-1.2-2.67-2.67-2.67ZM8,9.33c-.74,0-1.33-.59-1.33-1.33s.59-1.33,1.33-1.33,1.33.59,1.33,1.33-.59,1.33-1.33,1.33Z"/><path class="c" d="M14.2,9.27l-.3-.17c.14-.73.14-1.47,0-2.2l.3-.17c.96-.55,1.29-1.77.73-2.73-.55-.96-1.78-1.29-2.73-.73l-.3.17c-.56-.48-1.2-.85-1.9-1.09v-.34c0-1.11-.89-2-2-2s-2,.89-2,2v.34c-.7.24-1.34.62-1.9,1.09l-.3-.17c-.96-.55-2.18-.22-2.73.73-.55.96-.22,2.18.73,2.73l.29.17c-.13.73-.13,1.47,0,2.2l-.29.17c-.96.55-1.29,1.77-.73,2.73.55.96,1.78,1.29,2.73.73l.3-.17c.56.48,1.2.85,1.9,1.09v.34c0,1.11.89,2,2,2s2-.89,2-2v-.34c.7-.24,1.34-.62,1.9-1.09l.3.17c.96.55,2.18.22,2.73-.73.55-.96.22-2.18-.73-2.73ZM12.5,6.75c.23.82.23,1.68,0,2.5-.08.29.05.6.31.75l.72.42c.32.18.43.59.24.91-.18.32-.59.43-.91.25l-.73-.42c-.26-.15-.59-.11-.81.11-.59.61-1.34,1.04-2.16,1.25-.3.07-.5.34-.5.64v.84c0,.37-.3.67-.66.67s-.67-.3-.67-.67v-.84c0-.3-.21-.57-.5-.64-.82-.21-1.57-.64-2.16-1.25-.21-.21-.55-.26-.81-.11l-.72.42c-.21.12-.46.12-.67,0-.21-.12-.34-.34-.34-.58s.13-.46.34-.58l.72-.42c.26-.15.39-.46.31-.76-.23-.82-.23-1.68,0-2.5.08-.29-.05-.6-.31-.75l-.72-.42c-.32-.18-.43-.59-.24-.91.18-.32.59-.43.91-.25l.73.42c.26.15.59.11.81-.11.59-.61,1.34-1.04,2.16-1.25.3-.08.5-.34.5-.65v-.84c0-.37.3-.67.67-.67s.67.3.67.67v.84c0,.3.2.57.5.64.82.21,1.57.64,2.16,1.25.21.21.55.26.81.11l.72-.42c.21-.12.46-.12.67,0,.21.12.34.34.34.58s-.13.46-.34.58l-.72.42c-.26.15-.39.46-.31.75Z"/></g></svg>