<?xml version="1.0" encoding="UTF-8"?><svg xmlns="http://www.w3.org/2000/svg" viewBox="0 0 16 16"><path d="M15.61,10.73s-5.82-2.65-5.84-2.65c-.48-.17-1.01-.04-1.38.32-.36.36-.48.89-.29,1.43l2.63,5.78c.11.23.34.39.59.39h.01c.25,0,.48-.14.6-.37l1.23-2.47,2.47-1.23c.23-.11.37-.35.37-.61,0-.25-.16-.49-.39-.59ZM12.37,12.07c-.13.07-.23.17-.3.3l-.71,1.42-2.03-4.45,4.45,2.03-1.41.71h0ZM8.61,14.64c-.12,0-.23.02-.35.02-.45-.44-1.61-1.68-2.42-3.32h.49c.37,0,.67-.3.67-.67s-.3-.67-.67-.67h-1.02c-.19-.63-.31-1.3-.31-2s.12-1.36.32-2h5.37c.08.26.14.52.2.79.07.36.42.6.78.53.36-.07.6-.42.53-.78-.04-.18-.07-.36-.12-.54h2.29c.2.63.3,1.3.3,2,0,.21,0,.41-.03.61-.03.37.24.69.61.72.37.04.69-.24.72-.61.02-.24.04-.48.04-.73C16,3.59,12.41,0,8,0S0,3.59,0,8s3.59,8,8,8c.24,0,.48-.01.73-.03.36-.04.64-.36.6-.73-.03-.36-.35-.64-.72-.6h0ZM3.93,10H1.64c-.2-.63-.31-1.3-.31-2s.11-1.37.31-2h2.29c-.16.64-.26,1.3-.26,2s.1,1.36.26,2ZM5.85,4.67c.68-1.39,1.61-2.48,2.15-3.06.54.57,1.47,1.67,2.16,3.06h-4.31ZM13.77,4.67h-2.15c-.53-1.26-1.26-2.32-1.89-3.11,1.72.46,3.17,1.6,4.04,3.11ZM6.27,1.56c-.63.78-1.36,1.85-1.89,3.11h-2.15c.88-1.51,2.32-2.64,4.04-3.11ZM2.23,11.33h2.15c.53,1.26,1.26,2.32,1.89,3.11-1.72-.46-3.16-1.6-4.04-3.11Z"/></svg>